<svg xmlns="http://www.w3.org/2000/svg" viewBox="0 0 1000 1000">
  <path fill="#1e0f00" stroke="#1e0f00" stroke-width="1.2" d="M782.5 683.8c2.5 7.3 5.4 16.1 2.2 23.6-1.8 4.2-4.9 7.7-7.7 11.2-3 3.8-5.4 7.9-8 11.9-20.9 32.9-43.7 64.4-68.9 94.2-12.6 15-25.8 29.4-39.3 43.5-6 6.3-10.4 13.6-15.6 20.5-2.1 2.8-4.3 5.4-6.5 8v-.1c.2-1.1-3.3-2.8-3.8-3.2 3.3-3.9 6.6-7.8 9.5-12 9.8-14.4 22.7-26.2 34.3-39.1 12-13.4 23.6-27.2 34.7-41.3 11.2-14.2 21.9-28.7 32-43.6 9.7-14.2 18.2-29.5 28.8-42.9 4.5-5.7 7.8-11.1 7-18.5-.8-7.9-4.2-15.4-6.9-22.8-4.2-11.4-8.3-22.9-12.4-34.4 1.2-.4 2.5-.9 3.6-1.4 5.6 15.5 11.6 30.9 17 46.4z"/>
  <path fill="#d6a48c" stroke="#d6a48c" stroke-width="1.2" d="M781.3 696c.7 7.5-2.6 12.9-7 18.5-10.6 13.5-19 28.8-28.8 42.9-10.2 14.9-20.9 29.4-32 43.6-11.1 14.1-22.7 27.9-34.7 41.3-11.6 12.9-24.4 24.8-34.3 39.1-2.9 4.3-6.2 8.1-9.5 12h-.1v.2c-1.8 2.2-3.6 4.3-5.4 6.5-5 6.5-9.4 13.5-13 20.8-7.4 14.9-12.8 31.1-23.6 44-11.6 13.9-30 23.4-48 16.1-.5-.2-1-.4-1.4-.6-14.6-6.5-24.3-21.6-31.8-35 0 0-.1-.1-.1-.2-.5-.9-3.6-2.1-4.5-1.6-6.9 3.2-14.3 5.2-21 8.6-5.8 2.9-10.4 7.7-16.3 10.4-4.6 2.1-9.4 3.2-13.5 1.6-2.2-.9-4.2-2.5-5.8-5.3-2.8-4.9-2.4-9.6 1.9-13.3 4-3.3 9.1-5 13.7-7.3 7.3-3.6 14.2-7.8 21.2-11.9 2.3-1.3 4.5-2.6 6.8-3.9 13-7.3 26.1-14.4 38.5-22.7 13.4-9 24.7-19.9 35.8-31.5 12.1-12.7 24.5-25.2 36.3-38.1 4.3-4.7 8.6-9.5 12.8-14.3.5-.1.8-.5.9-1 18.2-20.8 35.5-42.5 51.1-65.3 5.4-7.9 10.6-15.9 15.5-24 4.6-7.5 10-15.6 10.1-24.6.1-8.3-2.7-18-10-22.1 1.5-.7 2.9-1.4 4.3-2.2 9.2-5.3 17.7-11.7 26.8-17.1 11.3-6.7 22.8-13.1 35.2-17.6 3.4-1.2 7.1-2.2 10.7-3.4 4 11.5 8.2 22.9 12.4 34.4 2.7 7.6 6.1 15.1 6.8 23z"/>
  <path fill="#1e0f00" stroke="#1e0f00" stroke-width="1.2" d="M774.9 614.8c1.9 6.5 2.4 13.7-3.1 18.7-1.8 1.6-3.9 2.9-6.1 3.9 0-.1-.1-.3-.2-.4-.4-1-4.3-1.6-4.6-1.4l-.1-.3c.4-.2.7-.3 1.1-.5 8.1-3.3 10.5-9.1 8.5-17.6-2.7-11.2-10.6-19.3-17.1-28.4-5.7-7.8-8.8-17-10.6-26.4-1.9-9.9-2.6-19.9-3.9-29.9-1.5-11.7-4.6-23.1-8.2-34.3-7-21.9-16.8-42.7-28.3-62.6-9.9-17.1-21.3-33.8-35.7-47.5-7.5-7.2-15.9-13.5-25.2-18.3-10.7-5.4-22.5-8.8-34-12-23-6.5-46.5-11.4-69.3-19 1.2-.5 1.3-2.5.4-3.7 28.5 9.8 58.4 15 87 24.5 22.8 7.6 41.1 20.5 56.6 38.8 13.3 15.8 24 33.7 33.6 52 11.7 22.4 21.4 46.9 26.4 71.8 4.3 21.3 2 45.7 15.1 64.3 6.4 9.2 14.5 17.2 17.7 28.3z"/>
  <path fill="#21262a" stroke="#21262a" stroke-width="1.2" d="M770.4 617.2c2 8.5-.4 14.3-8.5 17.6-.4.2-.7.3-1.1.5-9 3.6-18.2 6.1-26.9 10.4-10.3 5.1-20.3 10.9-30.1 17-7.8 4.8-15.1 11.6-23.8 14.6-.2.1-.5.2-.7.2-13.7 4.4-21.4-12.5-22.9-23.6-1.4-10.9 1-21.9.2-32.8-.6-7.8-3.1-16-7.1-23.5-5.7-11.1-14.4-21-23.9-27.3-1.9-1.2-6.1.8-3.6 2.4 9.2 6 17 15 22.3 25.3-5 34.6-13.8 68.5-20.6 102.8-7.4 37.2-12.1 74.8-10 112.8-8.3 9.5-16.8 18.8-25.5 27.9-11.9 12.5-23.8 25.3-36.1 37.3-12.8 12.5-27.5 22.3-42.9 31.2-5.5 3.2-11.1 6.4-16.7 9.6-28.3 5.1-57.1 7.5-85.8 9-28.2 1.4-56.5 1.8-84.8.5 0-6.7-4.8-13.7-9.8-17.9-1.7-1.4-4.1-2.6-5.9-4.1v-.4c-2.8-22.9-3.8-45.9-2.8-69 1-22.7 3-46.1 12.4-67.1 4.3-9.7 4.7-21.2 6.4-31.6 1.8-11.3 3.7-22.7 5.6-34 3.3-19.5 7.3-39.1 8.7-58.9.2-2.8.4-5.7.5-8.5.7-20 1-40.3-1-60.2 2.5 3.8 5.5 7.1 9.2 9.8 8.1 5.9 17.3 6 26.9 5.8 14.3-.3 28.1-2.2 41.6-7 2.3-.8 4.6-1.5 7-2 13.2-3 26.7-1.3 40.3.7 15.8 2.4 31.7 4.4 47.7 5.5 30.8 2.1 62.6-.7 89.6-17.1 2.8-1.7-1.6-2.2-3.1-1.3-25.3 15.4-55.8 17.5-84.7 15.4-14.4-1-28.8-2.7-43.1-4.8-13.1-1.9-26.3-4.2-39.5-2.5-2.7.3-5.2.9-7.8 1.5-3.3.9-6.4 2-9.7 3.1-7.2 2.5-14.7 4-22.2 4.8-11 1.2-25.1 3.2-35.4-2.2-9.8-5.1-15.4-15.2-18.9-26-2.1-6.5-3.5-13.3-4.6-19.3-5.1-28.9-2.5-58.3 10.3-85 1-2.1-3.8-1.3-4.5.2-12 25.1-15.6 53-11.5 80.4 1.3 8.6 2.9 18.4 6.1 27.3 3.4 21.9 3 44 2.6 66.1-.1 4.6-.3 9.2-.6 13.7-3.8 1.2-7.6 2.3-11.5 3.1-14 3.1-28.6 3.6-42.8 1.6-7.4-1-17-2.3-23.8-6.2l-2.4-1.5c-2.6-1.9-4.4-4.8-6.4-7.3-.9-1.1-2.2-2.3-2.9-3.7-.9-1.9 0-4 1.7-4.7.6-.3 1.3-.4 2.1-.2.4.1 2.9.1 1.9-1-3.8-4.3-6.1-9.3-7.1-15 1.3-.2 2.6-.4 3.9-.7 1.2-.2 2.3-.4 3.5-.6.3 0 1.2-.3.9-.8-1.2-2.3-2.4-4.6-3.6-6.8-1.8-3.4-1.1-5.2.7-8.3 2.7-4.8 6.2-9.8 7.9-15.1 1.4-4.5 1-9.3.9-13.9 0-6 .1-11.9.1-17.9-.1-23.6-2.1-47.2-.8-70.8 1.3-22.8 5.6-45.1 14.6-66 1.7-3.9 3.1-8.2 5.8-11.6 3.2-4 8.2-5.4 12.8-7.2 10.7-4.4 21-10.1 31.4-15.1 20.7-9.8 41.5-19.6 63.1-27.3-3.2 5-5.1 10.5-5.7 16.3-1 8.7.9 17.8 5.2 25.9 8.9 16.8 25.5 27.2 41.9 35.5 1.1.5 2.3 0 3.2-.7.5-.4 1-.8 1.5-1.3 26.8-21.7 53.6-43.4 80.5-65.1 8.2-6.6 16.4-13.3 24.6-19.9.4-.3.6-.6.8-.8 1 .5 2.1.9 3.2 1.4.6.2 1.1.2 1.5.1 22.7 7.6 46.2 12.5 69.3 19 11.5 3.2 23.3 6.6 34 12 9.3 4.7 17.7 11.1 25.2 18.3 14.4 13.7 25.8 30.4 35.7 47.5 11.5 19.9 21.3 40.7 28.3 62.6 3.6 11.2 6.7 22.6 8.2 34.3 1.3 10 2 20 3.9 29.9 1.8 9.4 5 18.5 10.6 26.4 6.2 8.9 14.1 17.1 16.8 28.3zm-32-28.9c1.2-.4 1.5-2.5-.1-2-22.6 7-44.2 16.9-64.4 29.3-1.2.7-.7 2.7.7 1.8 20-12.3 41.4-22.1 63.8-29.1zm-37.8 37.3c1.1-.4.9-2.9-.5-2.3-12.9 5.2-24.9 12.2-35.9 20.8-1 .8-.3 3 .9 2 10.9-8.5 22.8-15.3 35.5-20.5zm-92.8 68.6c.9-.8-.1-3.1-1.1-2.2-11.9 10.6-23.8 21.2-35.6 31.8-8.7 7.8-21.3 15.9-23.8 28.1-.3 1.3 1.5 2.4 1.9.8 1.5-7.2 6.8-12.2 12.1-17 5.1-4.5 10.2-9.1 15.3-13.6 10.4-9.4 20.8-18.6 31.2-27.9zm-.5-27.2c1.3-1-.4-2.2-1.4-1.5-29.8 21.5-56 47.6-77.5 77.4-.8 1.2 1.6 1.7 2.3.7 21.2-29.4 47.1-55.4 76.6-76.6zm-2.8-28.1c1.4-.8-.3-2.1-1.4-1.5-36.7 21.6-68.2 51.2-92.1 86.4-.8 1.2 1.6 1.7 2.2.7 23.7-35 54.9-64.2 91.3-85.6zm-23.6-23.4c1.2-.9.2-2.5-1.1-1.5-32 25.2-60.2 54.8-83.9 87.9-1 1.3 1.2 1.6 2 .6 23.4-32.7 51.4-62 83-87zM527 860.2c1.3-.1 1.3-2.6.1-2.5-68.9 3.4-137.7 6.7-206.5 10.1-1.3.1-1.3 2.6 0 2.5 68.7-3.4 137.5-6.8 206.4-10.1zm-75.1 15.4c1.5-.2 1.4-2.1-.2-1.9-35.4 4.9-70.9 9.7-106.4 14.6-1.5.2-1.4 2.1.2 1.9 35.5-4.9 71-9.7 106.4-14.6zm-21.1-36.3c1.2.2 2.3-2 1-2.3-35.7-5.8-71.4-11.6-107-17.4-1.2-.2-2.3 2-1 2.3 35.7 5.8 71.3 11.6 107 17.4zm-103-229.5c1.3-.2.9-2.6-.3-2.4-25.8 3.3-51.8-.4-75.6-10.8-1.3-.6-1.3 1.9-.2 2.3 23.9 10.5 50.2 14.2 76.1 10.9zm-1.8 24.7c1.5-.2 1.4-2.1-.1-1.9-24.6 3.5-49.5 1.5-73.2-6-1.2-.4-2.7 1.2-1.1 1.7 24 7.7 49.4 9.8 74.4 6.2zm-18.6-8c1.6 0 1.4-1.9-.1-1.9-18.3.3-36.3-2.2-53.9-7.2-1.2-.4-2.7 1.2-1.2 1.7 18 5.2 36.5 7.7 55.2 7.4z"/>
  <path fill="#1e0f00" stroke="#1e0f00" stroke-width="1.2" d="M765.5 637c.1.1.1.3.2.4-1.2.5-2.4 1-3.6 1.4l-1.2-3.3c.4-.2 4.3.4 4.6 1.5zm-4.6-1.4l1.2 3.3c-3.6 1.3-7.3 2.2-10.7 3.4-12.4 4.4-23.9 10.9-35.2 17.6-9.1 5.4-17.6 11.8-26.8 17.1-1.4.8-2.8 1.5-4.3 2.2-1.2-.7-2.6-1.2-4-1.6-.6-.1-.9-.2-1-.1l-.1-.2c8.8-3 16.1-9.8 23.8-14.6 9.8-6.1 19.8-11.9 30.1-17 8.7-4.3 18-6.8 26.9-10.4l.1.3zm-22.6-49.3c1.6-.5 1.3 1.7.1 2-22.4 7-43.8 16.8-63.8 29.1-1.4.9-1.9-1.1-.7-1.8 20.2-12.4 41.8-22.3 64.4-29.3zm-38.1 37c1.3-.5 1.5 1.9.5 2.3-12.8 5.1-24.6 12-35.4 20.5-1.2 1-1.9-1.3-.9-2 10.9-8.6 22.9-15.6 35.8-20.8zm-15.1 55.9c7.3 4.1 10.1 13.8 10 22.1-.1 9.1-5.5 17.2-10.1 24.6-5 8.1-10.2 16.1-15.5 24-15.6 22.8-32.9 44.5-51.1 65.3v-.3c-.1-2.2-.2-4.3-.3-6.5 13.8-16 26.9-32.5 39.2-49.6 10-14 20.2-28.4 28.3-43.7 3.3-6.2 5.4-12.7 4.5-19.8-.5-3.3-1.3-6.7-2.7-9.8-.5-1.2-2.1-4.6-3.6-5.8.5-.2.9-.4 1.3-.5z"/>
  <path fill="#1e0f00" stroke="#1e0f00" stroke-width="1.2" d="M685.1 679.2c-.4.2-.8.4-1.2.5-.3-.2-.5-.3-.8-.4-.8-.2-3.6-1.6-3.1-1.8.1-.1.4 0 1 .1 1.5.3 2.9.9 4.1 1.6z"/>
  <path fill="#1e0f00" stroke="#1e0f00" stroke-width="1.2" d="M683.1 679.3c.3.1.5.2.8.4-5.2 2.1-10.8 3.1-16.1.9-8.8-3.7-14-14.6-15.9-23.4-2.1-10.1-.2-20.4-.2-30.6 0-6.7-1.4-13.6-3.8-20.3.4-2.6.8-5.1 1.2-7.7 0-.3 0-.6-.1-.9l.5-.2c3.9 7.6 6.5 15.7 7.1 23.5.8 10.9-1.6 21.9-.2 32.8 1.5 11.1 9.2 28 22.9 23.6.2-.1.5-.2.7-.2l.1.2c-.6.3 2.2 1.7 3 1.9z"/>
  <path fill="#1e0f00" stroke="#1e0f00" stroke-width="1.2" d="M649.4 597.6l-.5.2c-.8-1.6-4.4-2.3-4.7-.1v.3c-5.3-10.3-13.1-19.3-22.3-25.3-2.5-1.7 1.7-3.6 3.6-2.4 9.5 6.2 18.2 16.2 23.9 27.3z"/>
  <path fill="#1e0f00" stroke="#1e0f00" stroke-width="1.2" d="M648.9 597.8c.1.3.2.6.1.9-.4 2.6-.8 5.1-1.2 7.7-1-2.9-2.3-5.7-3.7-8.4v-.3c.5-2.2 4-1.5 4.8.1zm.1 403.7c-.1-.2-1-.6-1.9-1.2v-.8H646c-.4-.3-.7-.6-.8-1-2.7-7.4-4.5-14.6-5.4-22.3-.9-7.8-3.2-15.1-5.9-22.4-2-5.5-3.7-11-3.6-16.9.1-5 1.5-9.8 2.5-14.7 1.2-6.5.9-13.1 1.2-19.7 1.6-2 3.2-3.9 4.9-5.8-2 9.5-.5 19.2-2.2 28.7-1.1 5.7-2.7 11.2-2.4 17.1.3 5.5 2.3 10.8 4.2 15.9 5 14.1 5.3 28.9 10.5 43.1z"/>
  <path fill="#1e0f00" stroke="#1e0f00" stroke-width="1.2" d="M647.1 1000.3v.2H382.9c0-.3-.1-.7-.2-1h263.1c.5.3.9.5 1.3.8z"/>
  <path fill="#1e0f00" stroke="#1e0f00" stroke-width="1.2" d="M647.1 999.5v.8c-.4-.2-.8-.5-1.1-.8h1.1z"/>
  <path fill="#100c0c" stroke="#100c0c" stroke-width="1.2" d="M645.9 999.5H382.8c-1.4-9.1-2.4-18.3-1.9-27.5.4-9.6 2-19.2 3.5-28.7.3-1.7-3-5.4-3.3-3.1-1.5 9.8-3.1 19.7-3.6 29.7s.6 19.9 2.2 29.7H264.3c.6-9.1 2.2-18.3 2.1-27.4-.1-8.7-3-16.7-6.4-24.5.8 0 1.6-.1 2.4-.3 3-1 4.9-4.7 6.6-7.1 4-5.5 8.1-11.1 12.3-16.4 1.1-1.3 1.8-2.1 3.1-3 .3.3.5.6.7 1 1 1.5 1.7 3.1 2.6 4.6 2.8 4.6 6.2 9.4 11 12.1 1.6.9 3.4 1.7 5.3 2.3 4.7 1.5 9.9 1.5 13.6-2.1 2-1.9 3.2-4.1 3.8-6.3 28.6 1.4 57.3.9 85.9-.6 25.7-1.3 51.5-3.4 77-7.5-7.2 4.1-14.5 8.1-21.8 11.8-6.6 3.4-20.3 7-18.5 16.9 1.2 6.4 6 10.7 11.7 12.8 4.2 1.5 9 1.8 13.1.7 7.2-1.8 11.9-6.5 18-10.3 6.7-4.1 14.4-6.3 21.7-9.3 8.2 13.9 19.8 28.1 34.4 34.8 7.6 3.5 16 5 25.2 3.5 36.4-6.1 43.5-49.9 60.6-75.8 1.6-2.4 3.3-4.6 5-6.8-.3 6.6 0 13.2-1.2 19.7-.9 4.9-2.3 9.7-2.5 14.7-.1 5.9 1.6 11.4 3.6 16.9 2.7 7.4 5 14.6 5.9 22.4.9 7.8 2.7 15 5.4 22.3.4.2.6.5 1 .8z"/>
  <path fill="#1e0f00" stroke="#1e0f00" stroke-width="1.2" d="M644.2 598c1.4 2.7 2.6 5.5 3.7 8.4-5.1 32-13.2 63.6-19.5 95.4-7 35.2-11.6 70.8-10.2 106.6-1.5 1.8-3 3.5-4.5 5.2-2.1-37.9 2.6-75.6 10-112.8 6.7-34.3 15.5-68.2 20.5-102.8zM635 893.5c.5.3 4 2 3.8 3.2v.1c-1.6 1.9-3.3 3.9-4.9 5.8.1-3 .4-6 1-8.9 0-.1.1-.2.1-.2z"/>
  <path fill="#1e0f00" stroke="#1e0f00" stroke-width="1.2" d="M635 893.5l-.1.1s0-.1.1-.1c-.1 0 0 0 0 0zm-.1.1c-.6 3-.9 5.9-1 8.9-1.8 2.2-3.5 4.4-5 6.8-17.1 25.9-24.2 69.7-60.6 75.8-9.2 1.5-17.6 0-25.2-3.5l.5-1.1c.5.2.9.4 1.4.6 18 7.3 36.4-2.2 48-16.1 10.8-13 16.3-29.1 23.6-44 3.6-7.3 8-14.3 13-20.8 1.7-2.3 3.5-4.4 5.3-6.6zm-16.5-78.8v.3c-.3.3-.6.7-.9 1-1.4.4-3.8-.7-3.9-2.3v-.3c1.5-1.7 3-3.5 4.5-5.2.1 2.2.2 4.4.3 6.5zm0 .4c-.1.5-.4.8-.9 1 .3-.4.6-.7.9-1z"/>
  <path fill="#1e0f00" stroke="#1e0f00" stroke-width="1.2" d="M613.6 813.9c.1 1.6 2.6 2.7 3.9 2.3-4.2 4.8-8.5 9.5-12.8 14.3-11.9 12.9-24.2 25.4-36.3 38.1-11.1 11.7-22.4 22.6-35.8 31.5-12.4 8.3-25.5 15.4-38.5 22.7l-.1-.2c2-1 1.3-3.4-1.4-2.9h-.3c5.6-3.2 11.1-6.4 16.7-9.6 15.5-8.9 30.2-18.7 42.9-31.2 12.4-12.1 24.2-24.8 36.1-37.3 8.7-9.1 17.2-18.4 25.5-27.9.1 0 .1.1.1.2zm-6.8-122c1-.9 1.9 1.4 1.1 2.2-10.4 9.3-20.8 18.6-31.3 27.9-5.1 4.5-10.2 9.1-15.3 13.6-5.3 4.7-10.6 9.7-12.1 17-.3 1.6-2.1.4-1.9-.8 2.5-12.2 15.1-20.3 23.8-28.1l35.7-31.8zm-.9-26.4c1.1-.8 2.8.5 1.4 1.5-29.5 21.2-55.4 47.1-76.7 76.7-.7 1-3.1.5-2.3-.7 21.6-29.9 47.8-56 77.6-77.5zm-2.9-28.1c1.1-.7 2.8.6 1.4 1.5-36.3 21.4-67.6 50.7-91.3 85.6-.7 1-3 .5-2.2-.7 23.9-35.3 55.5-64.8 92.1-86.4zm-8-65.7c1.6-.9 5.9-.4 3.1 1.3-26.9 16.4-58.7 19.2-89.6 17.1-16-1.1-31.9-3.1-47.7-5.5-13.5-2-27-3.7-40.3-.7l-.6-2.6c2.5-.7 5.1-1.2 7.8-1.5 13.2-1.7 26.5.6 39.5 2.5 14.3 2.1 28.7 3.8 43.1 4.8 29 2.1 59.4.1 84.7-15.4zM579.8 614c1.2-1 2.3.6 1.1 1.5-31.6 24.9-59.6 54.2-83 87-.7 1-2.9.7-2-.6 23.7-33.1 52-62.7 83.9-87.9zm-36.3 366.5l-.5 1.1c-14.6-6.7-26.1-20.9-34.4-34.8 1-.4 1.9-.8 2.9-1.3l.2-.1c7.5 13.5 17.3 28.6 31.8 35.1zm-5-645.4c.9 1.2.8 3.2-.4 3.7-.8-.2-1.5-.5-2.3-.8-3.1-1.1.3-3.8 2.6-3 0 .1.1.1.1.1z"/>
  <path fill="#1e0f00" stroke="#1e0f00" stroke-width="1.2" d="M538.5 335.1h-.1c-2.3-.8-5.6 1.9-2.6 3 .8.3 1.5.5 2.3.8-.4.2-.9.2-1.5-.1-1.1-.4-2.1-.9-3.2-1.4.8-1.4-1.1-2.1-2.8-1.3-14.3-7.3-26.1-19.1-33-33.6-6.4-13.3-10.3-28.4-9-43 2.6-3.5 4.8-7.2 6.6-11.1-6.1 17.6-1.7 37.7 6.6 53.9 7.5 14.8 20.5 26.1 35.8 32.3.4 0 .7.2.9.5z"/>
  <path fill="#1e0f00" stroke="#1e0f00" stroke-width="1.2" d="M530.7 336.1c1.6-.8 3.6-.1 2.8 1.3-.9-.4-1.9-.9-2.8-1.3z"/>
  <path fill="#1e0f00" stroke="#1e0f00" stroke-width="1.2" d="M533.5 337.4c-.1.3-.4.5-.8.8-8.2 6.6-16.4 13.3-24.6 19.9l-.8-1c.4-.3.4-1.5.2-2.5 7.5-6.1 15-12.1 22.5-18.2.2-.2.4-.3.6-.4 1 .5 2 1 2.9 1.4z"/>
  <path fill="#d6a48c" stroke="#d6a48c" stroke-width="1.2" d="M530.7 336.1c-.2.1-.4.2-.6.4-7.5 6.1-15 12.1-22.5 18.2-.1-.7-.3-1.2-.4-1.2-20.8 5.6-41.6 11.2-62.3 16.7-.8.2-.3 3.9.1 3.8 19.4-5.2 38.7-10.4 58.1-15.6-25.9 21-51.9 42-77.8 63-14.3-7.4-28.5-16.2-37.4-30-4.7-7.2-7.5-15.8-7.7-24.2l38.1 7.5c.4.1.7-3.6-.1-3.7-12.6-2.5-25.3-5-37.9-7.5.5-6.2 2.6-12.1 6.6-17.4.5.4.8.4.7-.5.2-.1.4-.1.6-.2.6-.2.5-.6.1-.9.8-1.2.1-1.7-1-1.7-2.3-17.7-3-35.6-5.5-53.3 0-.3-.3-.8-.6-1.3 4.2 2.6 8.7 4.6 13.2 6.9 7 3.7 13.7 7.1 21.9 5.8 9.2-1.5 18-6.1 26.6-9.4 8.6-3.3 16.5-5.6 24.1-11 7.6-5.4 14.5-11.8 20.4-19.1.5-.6 1-1.3 1.5-1.9-1.3 14.7 2.7 29.8 9 43 6.8 14.5 18.6 26.3 32.8 33.6zm-80.1 10.1c.3.7.7-2.5.4-3.2-5.7-12.6-9.6-25.8-11.6-39.5-.4-2.3-.8 1.1-.7 1.9 2.1 14.1 6 27.8 11.9 40.8zm-30-34.1c.1-.8-.5-4.2-.8-1.9-2.3 17.6-8.1 34.5-16.8 50-.5.9.3 3.6.3 3.6 9.1-16 14.9-33.4 17.3-51.7z"/>
  <path fill="#1e0f00" stroke="#1e0f00" stroke-width="1.2" d="M527 857.7c1.2-.1 1.2 2.4-.1 2.5-68.8 3.4-137.7 6.7-206.5 10.1-1.2.1-1.2-2.4 0-2.5 68.9-3.4 137.8-6.8 206.6-10.1zM516.6 156c5.6 4.2 4.6 12.4 4 18.4-1.5 15.4-6.7 33.1-17.5 44.8-3.5 3.8-4.5 6.2-4.2 11.4.2 3.6 0 6.7-1 10.3-.7 2.5-1.6 5-2.7 7.3.1-.3.2-.5.3-.8.8-2.1-2.3-5.4-3.5-3.4 1.4-3.6 2.1-7.4 2-11.2-.1-3-.8-6.3.3-9.2 1.1-3.1 3.8-5.2 5.8-7.6 10.3-12 14.9-29.8 15.8-45.3.3-4.5.6-11.1-4.9-12.5-1.5-.4-2.7-.3-3.9-.8 0-.1.1-.2.1-.3.8-1.4.7-3.4.5-4.9v-.2l1.3-.3c.1.4.2.7.3 1.1 1.1 2.4 5.3 1.7 7.3 3.2z"/>
  <path fill="#d6a48c" stroke="#d6a48c" stroke-width="1.2" d="M397.9 176.6c7.7 10.3 9.6 26.2 3.1 37.5-2.4 4.1-7 9-3.7 13.9 3.2 4.8 9.6 4 14.4 3.1 1.2-.2 1.9-2.3.3-2-4.2.8-10.5 1.8-12.9-2.8-2.3-4.2 2.2-8.5 4.1-11.7 2.4-4.1 3.6-8.9 4-13.7.7-9.6-2-19.5-8.2-27-.2-.2-.4-.3-.7-.3 0-.3-.1-.6-.2-.9-8.8-14.7-33.3.1-43.2 6.1-1 .6.1 4 .1 4 9.4-5.7 32.4-19.7 41.9-7.8 0 .1.1.3.2.4.2.4.4.7.8 1.2-.1-.1-.1-.1 0 0zm113.2-18.3c5.5 1.4 5.2 8 4.9 12.5-.9 15.5-5.5 33.3-15.8 45.3-2 2.4-4.8 4.5-5.8 7.6-1 2.9-.3 6.2-.3 9.2.1 3.8-.7 7.6-2 11.2 0 .1-.1.2-.1.3-.1.2-.1.4-.2.6-2 5.2-5.2 10-8.4 14.1-4.9 6.1-10.5 11.6-16.7 16.3-6.3 4.8-12.4 7.8-19.8 10.3-7.5 2.5-14.8 5.8-22.2 8.6-3.8 1.5-7.8 2.9-11.9 2.9-4.3 0-8.1-1.7-11.8-3.6-6.1-3.1-12.6-5.7-18.3-9.6-6.4-4.4-11.5-10.3-15.2-17-3.3-5.9-5.7-12.3-8.4-18.4-2.8-6.5-6.6-12-10.1-18.1-4-6.8-6.9-14.3-9.2-21.8-2.2-7.2-4.6-14.8-5.7-22.2-.4-2.7-.5-5.4.5-8 .5-1.3 1.2-2.1 1.9-2.9 1.8 12.4 5.9 24.3 11.5 35.6 1 2 1.2-4.9 1.1-5.5-.1-.5-.1-1-.2-1.4-2.6-21.8-2-43.9 1.7-65.5 2 3.2 5.2 7.2 9.1 4.4.5-.4 1-.9 1.3-1.4.6 2.6 1.2 5.2 1.9 7.7.2.7.6 1.7 1.1.6 1.2-2.8 2.3-5.5 3.5-8.3-.1 3.8-.1 7.5-.2 11.3v2.4c0 .6.8 6.5 1.4 4.5 2.9-9.4 5.7-18.8 8.6-28.2-.3 2.4-.5 4.9-.8 7.3 0 .5-.1 1-.1 1.5-.1.6.5 7.5 1.4 5.4 2-4.6 4-9.3 6-13.9.2 1.2.4 2 .6 1.8 1.5-1.9 3-3.8 4.6-5.7.1 1.7.4 3.1.8 2.6l5.1-5.1c.1.8.3 1.2.6 1.1.1 0 .2-.1.3-.1 13.7-5.3 27.4-11 41.3-15.7 11.9-4 22.1-2.9 30.7 6.8 18.4 20.9 22.9 49.1 26.5 75.8.1 1 .3 2 .4 3.1.4 3.3 1.5 1 1.6-1 .1-1 .1-2 .3-3 1.2-12.3 5-24.4 11-35.3.8.6 2 .5 3.5.9zm-38.2 17.5c.3.1.8-3.7-.1-4-14.9-4.8-37.3-16.4-48.7.6-.6.9.3 3.9.3 3.9 11.3-16.9 33.7-5.2 48.5-.5zm-6.7 5.7c.3.1.8-3.6-.1-3.8-8.4-1.9-16.7-1.8-24.9.3-.9.2-1.8.5-2.8.8-.8.3-.2 3.8.1 3.8.9-.3 1.7-.5 2.5-.7 0 .4.1.7.3.9 2.7 3.2 8.5 7.5 13 5.9 3.1-1.1 4.5-5.4 3.6-8.4 2.8.2 5.5.6 8.3 1.2zm-11.6 51.9c1.1.5 1.9-1.8.7-2.4-7.8-3.8-13.5-10.5-16-18.8-.5-1.5-2.1.2-1.8 1.3 2.8 8.8 8.9 15.9 17.1 19.9zm-13.8 17.9c.7-.1.4-3.8-.1-3.8-17.2 2.6-35.8 7.5-53 2.5-.3-.1-.8 3.5.1 3.8 17.1 5 35.8.1 53-2.5zm-10.1 14c.9-.5 0-3.8-.1-3.8-11.3 6.5-25.2 6.2-36.3-.7-.4-.2-.9 3.2-.1 3.6 11.1 7 25 7.4 36.5.9zm-38.1-82.6c.3-.4.5-3.6-.2-3.7-10.6-.6-20.9 1.3-30.6 5.5-.9.4-.1 3.8.1 3.8 3.3-1.4 6.6-2.6 9.9-3.4l.1.3c0-.1-.8 2.8-.1 3.6 5.7 7.3 16.2 4.1 17.8-4.7 0-.2 0-.8-.1-1.4.8 0 1.7 0 2.5.1.1.3.2.5.2.5.1-.2.2-.4.4-.6z"/>
  <path fill="#1e0f00" stroke="#1e0f00" stroke-width="1.2" d="M511.6 945.3s.1.1.1.2l-.2.1c-1.5-.5-3-1.1-4.5-1.6.5 1 1.1 1.9 1.7 2.9-7.3 3-14.9 5.2-21.7 9.3-6.1 3.7-10.8 8.5-18 10.3-4.2 1-8.9.8-13.1-.7l.5-1.4c4 1.6 8.9.5 13.5-1.6 5.9-2.7 10.5-7.5 16.3-10.4 6.8-3.4 14.1-5.5 21-8.6.8-.5 3.9.7 4.4 1.5z"/>
  <path fill="#1e0f00" stroke="#1e0f00" stroke-width="1.2" d="M507 944c1.5.5 3 1.1 4.5 1.6-1 .4-1.9.9-2.9 1.3-.5-1-1.1-2-1.6-2.9zm-3.5-849.6c7.2 14.7 8.5 32.8 6.7 48.9-.3 2.4-1.5 5.9-1 8.5l-1.3.3c-.1-.8-.7-3.3-1.2-2.6-.8 1.4-1.5 2.8-2.2 4.2-.8-3.2.4-7.3.8-10.3 2-16.3.5-35-7.4-49.6-3.8-7-9-13.1-16-17.1-6-3.4-12.6-5.3-19-7.5l.7-2.6c.1-.4.2-.9.3-1.3 7.9 2.7 16.1 5 23.1 9.5 7.2 4.8 12.7 11.9 16.5 19.6zm3.9 262.8l.8 1c-26.8 21.7-53.6 43.4-80.5 65.1l-1-1.2c-.5-.2-.9-.5-1.4-.7 25.9-21 51.8-42 77.8-63 1.4-.4 2.8-.8 4.2-1.1 0-.1 0-.1.1-.1z"/>
  <path fill="#1e0f00" stroke="#1e0f00" stroke-width="1.2" d="M507.9 152.3c.2 1.5.3 3.5-.5 4.9 0 .1-.1.2-.1.3-.5-.2-1-.6-1.6-1.2-.6-.7-1-1.6-1.2-2.5.7-1.4 1.4-2.8 2.2-4.2.4-.8 1 1.8 1.2 2.6-.1 0 0 .1 0 .1zm-.3 202.4c.2 1 .2 2.2-.2 2.5 0 0-.1 0-.1.1-1.4.4-2.8.8-4.2 1.1 1.4-1.3 3-2.5 4.5-3.7z"/>
  <path fill="#1e0f00" stroke="#1e0f00" stroke-width="1.2" d="M507.6 354.7c-1.5 1.2-3 2.5-4.5 3.7-19.4 5.2-38.7 10.4-58.1 15.6-.4.1-.9-3.5-.1-3.8 20.8-5.6 41.6-11.1 62.3-16.7.1-.1.3.5.4 1.2zm-2-198.5c.5.6 1 1 1.6 1.2-6 10.9-9.8 22.9-11 35.3l-.4-.1-.9-6.6c1.5-11.2 4.6-22.1 9.6-32.3.2 1 .5 1.8 1.1 2.5z"/>
  <path fill="#664f3d" stroke="#664f3d" stroke-width="1.2" d="M497.8 93.9c7.9 14.6 9.4 33.3 7.4 49.6-.4 2.9-1.5 7-.8 10.3-5 10.2-8.1 21.1-9.6 32.3-3.5-25.8-8.3-52.6-25-73.3-8.2-10.1-17.6-14.3-30.4-10.6-13.4 3.8-26.6 9.6-39.6 14.8-.2-2.1-.7-4.3-1-4-2.6 2.6-5.1 5.2-7.7 7.8-.2-1.9-.5-3.6-.8-3.2l-.3.3c-.7.8-1.3 1.7-2 2.5.1-1.2.1-2.5-.2-3.6-.1-.6-.6-2.9-1.3-1.4-2.6 5.9-5.2 11.9-7.7 17.8.4-3.7.8-7.4 1.1-11 .1-.5.1-1 .2-1.4.1-.8-.8-7.4-1.4-5.4-.1.5-.3.9-.4 1.4-3.1 10.3-6.3 20.7-9.5 31.1.1-3.3.1-6.5.2-9.8 0-.8 0-1.6.1-2.4 0-.6-.6-6.5-1.5-4.5-1.5 3.5-3 7.1-4.5 10.6-.6-2.6-1.3-5.3-1.9-7.9-.1-.4-.2-.7-.3-1.1-.5-1.7-.8-.9-1.3 0-.3.6-.4 1.4-.3 2.3-.9 1-2.6 1.3-3.9 1-2.5-.6-4.1-3.4-5.2-5.4-.6-1-.9-.1-1.1.7-4 22.7-4.9 45.7-2.9 68.5-3.8-8.3-6.7-17-8.3-26 1-1.2 1.4-2.2 1.2-3.9-.4-5.1-3.5-9.9-4.6-14.9-3.3-15.1-3.5-30.7 1.7-45.3 4.9-13.6 14-26.1 25.7-34.6 7-5.1 15-8.4 22.4-12.8 7.3-4.3 14.8-7.8 23.1-9.9 18.5-4.7 35.3.9 52.3 8-.5 2-1 4-1.5 6.1-.2 1 .6 1.7 1.4 1.9.9.3 1.8.6 2.8 1 6.5 2.2 13.1 4.1 19 7.5 7.3 3.8 12.6 9.9 16.4 16.9z"/>
  <path fill="#1e0f00" stroke="#1e0f00" stroke-width="1.2" d="M495.8 192.7l.4.1-.3 3c-.1 2-1.2 4.3-1.6 1-.1-1-.3-2-.4-3.1h.2c.6-.4 1.1-.7 1.7-1z"/>
  <path fill="#1e0f00" stroke="#1e0f00" stroke-width="1.2" d="M495.8 192.7c-.5.3-1.1.7-1.6 1 .2-2.6.4-5.1.8-7.6.2 2.2.5 4.4.8 6.6zm-3.8 51.4c1.1-2.1 4.3 1.2 3.5 3.4-.1.3-.2.5-.3.8-1.8 3.9-4 7.6-6.6 11.1.4-4.8 1.4-9.6 3-14.3.2-.3.3-.6.4-1z"/>
  <path fill="#1e0f00" stroke="#1e0f00" stroke-width="1.2" d="M494.9 186.1c-.3 2.5-.6 5.1-.8 7.6h-.2c-3.6-26.7-8-54.9-26.5-75.8-8.6-9.7-18.8-10.9-30.7-6.8-13.9 4.7-27.6 10.5-41.3 15.7 1.4-2 2.8-4 4.1-6 .4-.6.5-2.2.3-3.7 13.1-5.2 26.2-11 39.6-14.8 12.8-3.7 22.3.5 30.4 10.6 16.8 20.6 21.6 47.4 25.1 73.2zm-2.3 733.5c2.7-.5 3.3 1.9 1.4 2.9l-.9.3c-2.9.5-5.8 1-8.8 1.5 2.7-1.5 5.4-3.1 8-4.6.2 0 .2-.1.3-.1z"/>
  <path fill="#1e0f00" stroke="#1e0f00" stroke-width="1.2" d="M494 922.5l.1.2c-2.3 1.3-4.5 2.5-6.8 3.9-7 4-14 8.2-21.2 11.9-4.6 2.3-9.7 3.9-13.7 7.3-4.3 3.6-4.7 8.4-1.9 13.3 1.6 2.8 3.5 4.4 5.8 5.3l-.5 1.4c-5.8-2-10.6-6.3-11.7-12.8-1.8-9.8 11.9-13.5 18.5-16.9 7.3-3.8 14.6-7.8 21.8-11.8 2.9-.5 5.8-1 8.8-1.5.2-.1.5-.2.8-.3zm-2.1-678.1c0-.1.1-.2.1-.3-.1.3-.2.6-.4.9.2-.1.2-.3.3-.6z"/>
  <path fill="#1e0f00" stroke="#1e0f00" stroke-width="1.2" d="M492.4 919.7c-2.7 1.5-5.4 3.1-8 4.6-25.5 4.1-51.3 6.2-77 7.5-28.6 1.5-57.3 2-85.9.6.3-1.1.4-2.2.4-3.3 28.2 1.4 56.6 1 84.8-.5 28.5-1.4 57.3-3.9 85.7-8.9zm-.7-674.6c-1.6 4.7-2.6 9.5-3 14.3-.5.7-1 1.3-1.5 1.9 1.9-2.4-2.4-4-3.9-2.1 3.2-4.1 6.3-9 8.4-14.1z"/>
  <path fill="#1e0f00" stroke="#1e0f00" stroke-width="1.2" d="M483.3 259.2c1.5-1.9 5.8-.3 3.9 2.1-1.5 2-5.8.4-3.9-2.1z"/>
  <path fill="#1e0f00" stroke="#1e0f00" stroke-width="1.2" d="M483.3 259.2c-1.9 2.5 2.4 4 3.9 2.1-5.8 7.3-12.8 13.6-20.4 19.1-7.6 5.4-15.5 7.6-24.1 11-8.6 3.3-17.4 8-26.6 9.4-8.1 1.3-14.9-2.1-21.9-5.8-4.5-2.3-9-4.4-13.2-6.9-.8-1.4-2.3-2.9-2.1-1.4-1.5-1-3-2.1-4.4-3.3-5.6-4.9-9.9-10.8-13.3-17.4-3.5-7-6.1-14.4-9.6-21.3-3.7-7.4-8.8-14-12.2-21.7-3.1-7.3-5.4-15-7.4-22.7-1.9-7-5.3-15.6-2.5-22.7 1.2-3 4.5-4.8 4.5-7.9l1.6.2c-.1 1.4.2 3.4.3 4.1l.3 1.8c-.8.8-1.4 1.6-1.9 2.9-1 2.6-.8 5.3-.5 8 1.1 7.4 3.5 15 5.7 22.2 2.3 7.5 5.2 15 9.2 21.8 3.6 6 7.3 11.6 10.1 18.1 2.7 6.2 5.1 12.5 8.4 18.4 3.8 6.7 8.9 12.6 15.2 17 5.6 3.9 12.2 6.5 18.3 9.6 3.7 1.9 7.5 3.6 11.8 3.6 4.1 0 8.1-1.5 11.9-2.9 7.4-2.8 14.7-6.1 22.2-8.6 7.4-2.5 13.6-5.5 19.8-10.3 6.4-4.8 12-10.3 16.9-16.4zm-10.5-87.4c.9.3.4 4.1.1 4-14.8-4.8-37.2-16.5-48.5.4 0 .1-.9-2.9-.3-3.9 11.3-16.9 33.8-5.3 48.7-.5z"/>
  <path fill="#1e0f00" stroke="#1e0f00" stroke-width="1.2" d="M466.1 177.8c.8.2.4 3.8.1 3.8-2.7-.6-5.5-1-8.2-1.2-.2-.5-.3-.4-.4 0-4.7-.3-9.4 0-14 1-.8-.6-1.5-1.4-2.1-2.1l-.3-1.1c8.2-2.3 16.5-2.3 24.9-.4zm-1.8-120c.6.3 1 1 .9 1.7-.5 2-1 4-1.4 6l-1.8-.6c.5.6 1 1.3 1.4 1.9l-.7 2.6c-.9-.3-1.8-.6-2.8-1-.8-.3-1.7-.9-1.4-1.9.5-2 1-4 1.5-6.1.4.2.8.3 1.2.5-.3-.6-.6-1.1-.9-1.7l-.3 1.2c-17-7.1-33.7-12.7-52.3-8-8.3 2.1-15.7 5.6-23.1 9.9-7.4 4.3-15.5 7.7-22.4 12.8-11.7 8.5-20.9 21-25.7 34.6-5.3 14.6-5 30.3-1.7 45.3 1.1 5 4.2 9.7 4.6 14.9.1 1.7-.3 2.7-1.2 3.9l-.6-3.9c-.1-1.2-.3-2.2-1.3-1.4-.3.3-.4.8-.5 1.4l-1.6-.2c0-.4 0-.7-.1-1.1-.8-3-2.1-5.9-3.1-8.8-2.5-7.5-3.4-16.1-3.5-24-.2-15.2 4-30.1 12.4-42.8 8.7-13.3 20.5-22.1 34.4-29.3 14-7.3 26.9-15 43.1-16.6 16.4-1.8 31.9 4.4 46.9 10.7z"/>
  <path fill="#1e0f00" stroke="#1e0f00" stroke-width="1.2" d="M463.8 65.5c-.1.4-.2.9-.3 1.3-.5-.6-1-1.3-1.4-1.9.5.2 1.1.4 1.7.6zm-3.5-6.2c.3.6.6 1.2.9 1.7-.4-.2-.8-.3-1.2-.5l.3-1.2zm-2.3 121c.8 3-.5 7.3-3.6 8.4-4.5 1.6-10.3-2.7-13-5.9-.2-.2-.2-.5-.3-.9.9-.2 1.7-.4 2.5-.6 1.7 1.5 3.6 2.6 5.8 3.3 1.5.5 3.3.9 4.8.3.7-.3 1.2-.8 1.8-1.2 1.3-.7.8-1.9 1.3-.3-.1-.4 0-2.4.2-3.2.2.1.4.1.5.1z"/>
  <path fill="#1e0f00" stroke="#1e0f00" stroke-width="1.2" d="M458 180.3h-.4c.1-.4.2-.5.4 0z"/>
  <path fill="#fff" stroke="#fff" stroke-width="1.2" d="M457.6 180.3c-.2.8-.3 2.8-.2 3.2-.5-1.6 0-.4-1.3.3-.6.3-1.1.9-1.8 1.2-1.6.6-3.3.2-4.8-.3-2.2-.7-4.1-1.8-5.8-3.3 4.6-1.1 9.2-1.4 13.9-1.1z"/>
  <path fill="#1e0f00" stroke="#1e0f00" stroke-width="1.2" d="M455.4 231c1.1.6.4 2.9-.7 2.4-8.3-4-14.4-11.1-17.1-19.9-.3-1.1 1.3-2.8 1.8-1.3 2.5 8.3 8.2 15 16 18.8zm-3.7 642.7c1.6-.2 1.7 1.7.2 1.9-35.5 4.9-70.9 9.7-106.4 14.6-1.5.2-1.7-1.7-.2-1.9 35.5-4.8 71-9.7 106.4-14.6zM451 343c.3.7-.1 3.9-.4 3.2-5.9-13-9.9-26.7-12-40.9-.1-.8.3-4.2.7-1.9 2.1 13.8 6 27 11.7 39.6zm-7.4-161.7c-.9.2-1.7.4-2.5.6-.1-1.1.4-2.8.4-2.7.6.7 1.4 1.4 2.1 2.1z"/>
  <path fill="#1e0f00" stroke="#1e0f00" stroke-width="1.2" d="M441.2 178.1l.3 1.1c-.1-.1-.5 1.6-.4 2.7-.8.2-1.7.5-2.5.7-.3.1-.9-3.5-.1-3.8.9-.2 1.8-.5 2.7-.7zm-.5 69.5c.5-.1.8 3.6.1 3.8-17.2 2.6-35.8 7.5-53 2.5-.9-.3-.4-3.8-.1-3.8 17.2 5 35.8.1 53-2.5zm-8.9 589.5c1.3.2.2 2.4-1 2.3-35.7-5.8-71.4-11.6-107-17.4-1.3-.2-.2-2.4 1-2.3 35.7 5.8 71.4 11.6 107 17.4zm-1.2-575.6c.1 0 1 3.3.1 3.8-11.5 6.5-25.4 6.2-36.5-.8-.7-.5-.2-3.8.1-3.6 11.1 6.9 25 7.1 36.3.6zm-3.9 160.6l1 1.2c-.5.4-1 .8-1.5 1.3-.9.7-2.1 1.2-3.2.7-16.4-8.3-33-18.8-41.9-35.5-4.3-8-6.2-17.1-5.2-25.9l2.4.2c-.1 1.1-.1 2.7.4 2.8l1.5.3c.1 8.4 3 17 7.7 24.2 8.9 13.8 23.1 22.6 37.4 30-.6.5-1.2 1-1.8 1.4 1.1-.3 2.1-.5 3.2-.7z"/>
  <path fill="#1e0f00" stroke="#1e0f00" stroke-width="1.2" d="M426.7 422.1c-1.1.2-2.1.5-3.2.7.6-.5 1.2-1 1.8-1.4.4.2.9.4 1.4.7zm-6.9-111.9c.3-2.3.9 1.1.8 1.9-2.4 18.3-8.3 35.7-17.2 51.7 0 0-.8-2.7-.3-3.6 8.7-15.5 14.4-32.3 16.7-50zm.2 271.1l.6 2.6c-2.3.5-4.7 1.2-7 2-13.4 4.9-27.3 6.8-41.6 7-9.6.2-18.9.2-26.9-5.8-3.7-2.7-6.7-6-9.2-9.8-.5-5.4-1.3-10.8-2.2-16.1v-.2h.1c3.5 10.8 9.1 20.9 18.9 26 10.2 5.4 24.3 3.3 35.4 2.2 7.6-.8 15.1-2.2 22.2-4.8 3.3-1.1 6.5-2.2 9.7-3.1zm-1.8-210.4c.8.2.5 3.8.1 3.7l-38.1-7.5c0-1.2 0-2.5.1-3.7 12.6 2.6 25.3 5 37.9 7.5zm-6.3-141.8c1.6-.3.9 1.8-.3 2-4.8.9-11.2 1.7-14.4-3.1-3.3-4.9 1.4-9.8 3.7-13.9 6.5-11.3 4.6-27.2-3.1-37.5 0-.1.4-1.8.4-3 .3 0 .5.1.7.3 6.2 7.5 8.9 17.4 8.2 27-.3 4.8-1.6 9.5-4 13.7-1.9 3.2-6.3 7.5-4.1 11.7 2.4 4.5 8.7 3.5 12.9 2.8zm-12-112.1c.1 1.6.1 3.1-.3 3.7-.1-1.2-.2-2.3-.3-3.5.2-.1.4-.2.6-.2z"/>
  <path fill="#1e0f00" stroke="#1e0f00" stroke-width="1.2" d="M399.9 117l-.6.3c-.1-1.4-.3-2.8-.4-4.2.3-.4.8 1.7 1 3.9z"/>
  <path fill="#1e0f00" stroke="#1e0f00" stroke-width="1.2" d="M399.3 117.2c.1 1.2.2 2.3.3 3.5-1.4 1.4-2.8 2.9-4.2 4.3-.1-2-.2-4.1-.3-6.1 1.3-.6 2.8-1.1 4.2-1.7z"/>
  <path fill="#1e0f00" stroke="#1e0f00" stroke-width="1.2" d="M399.6 120.7c-1.4 2-2.8 4-4.1 6 0-.6-.1-1.2-.1-1.7 1.4-1.4 2.8-2.9 4.2-4.3zm-.7-7.7c.1 1.4.2 2.8.4 4.2-1.4.6-2.9 1.1-4.3 1.7.1 2 .2 4.1.3 6.1l-.8.8c-.4-2-.3-6.1.2-6.7 1.4-2.1 2.8-4.1 4.2-6.1z"/>
  <path fill="#1e0f00" stroke="#1e0f00" stroke-width="1.2" d="M398.9 113c-1.4 2-2.8 4-4.1 6-.4.6-.6 4.7-.2 6.7l-5.1 5.1c-.4.4-.7-1-.8-2.6.2-.3.4-.6.7-.8.1 1 .2 2 .4 3.1.5-1.9 1-3.7 1.6-5.6.1-.5.1-2.3-.1-4.1 2.5-2.6 5-5.2 7.6-7.8zm-.7 60.6c.1 1.2-.4 2.9-.4 3 0 0 0-.1-.1-.1-.3-.5-.7-1-1-1.4-.1-.8.8-1.5 1.5-1.5z"/>
  <path fill="#1e0f00" stroke="#1e0f00" stroke-width="1.2" d="M398 172.7c.1.2.2.5.2.9-.7 0-1.6.8-1.4 1.5-9.5-11.9-32.5 2.1-41.9 7.8 0 0-1.1-3.4-.1-4 9.9-6.1 34.4-20.9 43.2-6.2z"/>
  <path fill="#1e0f00" stroke="#1e0f00" stroke-width="1.2" d="M397.8 176.5c-.3-.4-.5-.7-.8-1.1-.1-.1-.2-.3-.2-.4.3.5.7 1 1 1.5zm-2.4-49.8l-.2.2c-.3.1-.5-.4-.6-1.1l.8-.8v1.7zm-3 52.3c.7 0 .5 3.3.2 3.7-.1.2-.3.3-.4.5 0 0-.1-.2-.2-.5h.5c-.1-1.2-.1-2.5-.2-3.7-.1.2-.3.3-.4.5-.5.6-.1 2.3.1 3.1-.9 0-1.7-.1-2.5-.1-.1-1.1-.4-2.3-.6-1.2l-.3 1.2c-5.7 0-11.3.7-16.8 2.2-3.4.9-6.7 2-9.9 3.4-.2.1-1-3.4-.1-3.8 9.7-4 20-5.8 30.6-5.3z"/>
  <path fill="#1e0f00" stroke="#1e0f00" stroke-width="1.2" d="M392.3 179.1c.1 1.2.1 2.4.2 3.7h-.5c-.2-.8-.6-2.6-.1-3.1.1-.3.2-.4.4-.6zm-1.1-58.3c.2 1.7.2 3.6.1 4.1-.5 1.9-1 3.7-1.6 5.6-.1-1-.3-2-.4-3.1.6-.7 1.1-1.4 1.7-2.1-.2-1.3-.3-2.6-.5-3.9.3-.2.5-.4.7-.6z"/>
  <path fill="#1e0f00" stroke="#1e0f00" stroke-width="1.2" d="M391.2 120.8l-.6.6c-.1-1.1-.3-2.3-.4-3.4l-.1-.1.3-.3c.3-.4.6 1.3.8 3.2zm-.6.6c.1 1.3.3 2.6.5 3.9-.6.7-1.1 1.4-1.7 2.1-.2-1.4-.3-2.8-.5-4.2.5-.6 1.1-1.2 1.7-1.8z"/>
  <path fill="#1e0f00" stroke="#1e0f00" stroke-width="1.2" d="M390.2 118c.1 1.1.3 2.3.4 3.4l-1.8 1.8c.2 1.4.3 2.8.5 4.2-.2.3-.4.6-.7.8-.2-1.9-.2-4.2-.1-4.6.6-1.9 1.2-3.7 1.7-5.6z"/>
  <path fill="#1e0f00" stroke="#1e0f00" stroke-width="1.2" d="M390.2 118c-.5 1.9-1 3.7-1.6 5.6-.1.5-.1 2.8.1 4.6-1.5 1.9-3 3.8-4.6 5.7-.2.3-.4-.6-.6-1.8.2-.4.4-.8.5-1.2.1.9.2 1.7.3 2.6 1.1-3.7 2.3-7.5 3.4-11.2.2-.6.3-1.2.4-1.9.7-.8 1.3-1.6 2.1-2.4zm-.7 64.7c.1.6.1 1.2.1 1.4-1.6 8.8-12.2 12-17.8 4.7-.6-.8.1-3.7.1-3.6 4.7 6.1 14.4 4.8 16.7-2.5h.9zm0 0h-.9l.3-1.2c.1-1.1.4.1.6 1.2zm-1.3 161.8c.4.4.5.8-.1.9-.2.1-.4.1-.6.2v-.3c.1-.2.3-.4.4-.5.1-.2.2-.3.3-.3zm-1-1.8c1.1 0 1.8.6 1 1.7-.2-.2-.5-.4-.8-.6-.1-.3-.2-.7-.2-1.1z"/>
  <path fill="#1e0f00" stroke="#1e0f00" stroke-width="1.2" d="M387.9 116.8c.3 1.1.3 2.4.2 3.6-.2.2-.4.5-.5.7l-.9-5.7c.6-1.5 1.1.8 1.2 1.4zm-.3 4.3c.2-.2.4-.4.5-.7-.1.7-.2 1.3-.4 1.9 0-.4-.1-.8-.1-1.2zm.6 223.4c-.1.1-.1.2-.2.3-.1.2-.3.3-.4.5-.1-.5-.1-.9-.2-1.4.3.2.6.4.8.6z"/>
  <path fill="#1e0f00" stroke="#1e0f00" stroke-width="1.2" d="M387.6 121.1c.1.4.1.8.2 1.2-1.3 2.9-2.5 5.8-3.7 8.6-.2-1.6-.4-3.1-.6-4.7 1.3-1.7 2.7-3.4 4.1-5.1z"/>
  <path fill="#1e0f00" stroke="#1e0f00" stroke-width="1.2" d="M387.8 122.3c-1.1 3.7-2.3 7.5-3.4 11.2-.1-.9-.2-1.7-.3-2.6 1.2-2.8 2.4-5.7 3.7-8.6zm-.3 223.3c.1.9-.2.9-.7.5l.3-.3c.2-.1.3-.2.4-.2zm.1-224.5c-1.4 1.7-2.8 3.4-4.1 5.1.2 1.6.4 3.2.6 4.7-.2.4-.4.8-.5 1.2-.3-1.9-.4-4.8-.3-5.5 1.1-3.7 2.3-7.5 3.4-11.2l.9 5.7zm-.1 224.4s0 .1 0 0c-.1.1-.3.1-.4.2.1-.2.2-.3.4-.5v.3z"/>
  <path fill="#1e0f00" stroke="#1e0f00" stroke-width="1.2" d="M387.3 343.9c.1.5.1.9.2 1.4-.1.2-.3.3-.4.5-.2 0-.3.1-.5.2-.6-.6-1.4-1.8-1.7-2.5.1-.1.2-.2.4-.2.7 0 1.4.3 2 .6z"/>
  <path fill="#1e0f00" stroke="#1e0f00" stroke-width="1.2" d="M387.2 342.7c0 .4.1.8.2 1.2-.6-.3-1.4-.6-2-.7.5-.3 1.2-.5 1.8-.5z"/>
  <path fill="#1e0f00" stroke="#1e0f00" stroke-width="1.2" d="M387.2 342.7c-.6 0-1.3.1-1.8.4-.2 0-.3-.1-.5-.1v-.1c-2.6-18.7-3.2-37.5-5.8-56.1v-.1c.7.5 1.4.9 2.1 1.4.3.5.6 1 .6 1.3 2.4 17.7 3.1 35.6 5.4 53.3zm-.5 3.2c.1-.1.3-.1.5-.2l-.3.3c-.1 0-.2 0-.2-.1z"/>
  <path fill="#1e0f00" stroke="#1e0f00" stroke-width="1.2" d="M386.7 345.9l.2.2c-4 5.2-6.1 11.2-6.6 17.4-.6-.1-1.1-.2-1.7-.3-.1 0-.3.4-.3 1l-2.4-.2c.6-5.7 2.5-11.3 5.7-16.3 1.7-.7 3.4-1.2 5.1-1.8zm0-230.5c-1.2 3.7-2.3 7.5-3.4 11.2-.2.7 0 3.6.3 5.5-2 4.6-4 9.3-6 13.9-.9 2-1.4-4.8-1.4-5.4.1-.5.1-1 .1-1.5h.1c.5 1.8.9 3.6 1.4 5.4.4-3.8.8-7.5 1.2-11.3 2.5-5.9 5.1-11.9 7.7-17.8zm-1.4 227.7c-.1.1-.3.1-.4.2 0-.1-.1-.2-.1-.3.2.1.3.1.5.1zm-.4.3c.3.7 1.1 1.9 1.7 2.5-1.7.6-3.4 1.1-5.1 1.7.9-1.3 1.8-2.6 2.8-3.8.3-.1.5-.3.6-.4z"/>
  <path fill="#1e0f00" stroke="#1e0f00" stroke-width="1.2" d="M384.9 343.1c0 .1 0 .2.1.3-.2.1-.4.3-.5.4-1 1.2-2 2.5-2.8 3.8-21.6 7.7-42.4 17.4-63.1 27.3-10.4 4.9-20.7 10.7-31.4 15.1-4.5 1.9-9.6 3.3-12.8 7.2-2.7 3.4-4.1 7.7-5.8 11.6-9 21-13.3 43.3-14.6 66-1.3 23.6.7 47.2.8 70.8 0 6-.1 11.9-.1 17.9 0 4.6.5 9.4-.9 13.9-1.7 5.3-5.2 10.2-7.9 15.1-1.7 3.1-2.5 4.9-.7 8.3 1.2 2.3 2.4 4.6 3.6 6.8.3.5-.6.7-.9.8-1.2.2-2.3.4-3.5.6l-.4-2.3c.3-.3.6-.5.9-.8-.4.1-.8.1-1.2.2-1.5-2.8-3.2-5.6-4.5-8.5-1.2-2.6.5-4.2 1.9-6.6 2.9-5.2 7-10.7 8.3-16.6 1.3-5.7.5-12 .6-17.8.1-6.7.1-13.4 0-20.1-.7-46-5.4-95.3 17.6-137.4 4.4-8.1 12.3-9.5 20.1-13.3 10.7-5.3 21.4-10.4 32.2-15.5 21.1-10 42.4-19.7 64.6-27.1-.1-.1.1-.1.4-.1zm-3.9 597c.3-2.3 3.5 1.5 3.3 3.1-1.4 9.5-3 19.1-3.5 28.7-.4 9.3.5 18.4 1.9 27.5h-3.1c-1.6-9.8-2.7-19.7-2.2-29.7.5-9.9 2.2-19.7 3.6-29.6zm2 60.4c.4 2.7-1.9 1.5-2.9 0h2.9zm-.2-1c.1.3.1.7.2 1h-2.9c-.2-.3-.4-.7-.4-1h3.1z"/>
  <path fill="#fff" stroke="#fff" stroke-width="1.2" d="M388.5 182.7c-2.3 7.3-12 8.6-16.7 2.5l-.1-.3c5.5-1.5 11.1-2.2 16.8-2.2z"/>
  <path fill="#1e0f00" stroke="#1e0f00" stroke-width="1.2" d="M378.6 363.1c.6.1 1.1.2 1.7.3-.1 1.2-.1 2.5-.1 3.7l-1.5-.3c-.5-.1-.6-1.7-.4-2.8 0-.5.2-.9.3-.9zm.3-247.8c.6-1.9 1.5 4.7 1.4 5.4-.1.5-.1 1-.2 1.4h-.1c-.5-1.8-.9-3.6-1.4-5.4h-.1c.1-.4.2-.9.4-1.4zm1.2 885.2h-116c.1 0 .1-.1.1-.2 0-.3 0-.5.1-.8h115.4c0 .3.2.7.4 1zm0-878.3c-.4 3.7-.8 7.4-1.1 11-.9 2-1.7 3.9-2.5 5.9h-.1c.3-2.4.5-4.9.8-7.3 1-3.2 2-6.4 2.9-9.6z"/>
  <path fill="#1e0f00" stroke="#1e0f00" stroke-width="1.2" d="M378.6 116.8c.5 1.8.9 3.6 1.4 5.4-1 3.2-1.9 6.4-2.9 9.6.4-5 .9-10 1.5-15zm.4 170c-.2-1.6 1.3 0 2.1 1.4-.7-.5-1.4-1-2.1-1.4zm-2.6-147.7c.9-2 1.7-3.9 2.5-5.9-.4 3.8-.8 7.5-1.2 11.3-.4-1.7-.8-3.6-1.3-5.4z"/>
  <path fill="#1e0f00" stroke="#1e0f00" stroke-width="1.2" d="M378.6 116.8l-1.5 15c-2.9 9.4-5.7 18.8-8.6 28.2-.6 2-1.5-3.9-1.4-4.5v-2.4h.3c.5 1.5 1 3 1.4 4.5.1-3.3.1-6.6.2-9.8 3.1-10.4 6.3-20.7 9.5-31.1l.1.1zm-10.8 14.3c.9-2 1.5 3.9 1.5 4.5 0 .8 0 1.6-.1 2.4h-.3c-.5-1.5-1-3-1.4-4.5-.1 2.8-.1 5.5-.2 8.3-1.2 2.8-2.3 5.5-3.5 8.3-.5 1.1-.9.1-1.1-.6-.6-2.6-1.2-5.1-1.9-7.7 1.4-2.2 1.2-5.5.6-8 .6 2.6 1.3 5.3 1.9 7.9l-.6 1.5c.4.2.7.4 1.1.6-.2-.7-.3-1.4-.5-2.1 1.5-3.5 3-7 4.5-10.6z"/>
  <path fill="#1e0f00" stroke="#1e0f00" stroke-width="1.2" d="M369.1 138c-.1 3.3-.1 6.5-.2 9.8-.5 1.8-1.1 3.6-1.6 5.3h-.3c.1-3.8.2-7.5.2-11.3.5-1.3 1.1-2.6 1.6-3.8h.3zm-.1 9.8c-.1 3.3-.1 6.6-.2 9.8-.5-1.5-1-3-1.4-4.5.5-1.8 1-3.5 1.6-5.3z"/>
  <path fill="#1e0f00" stroke="#1e0f00" stroke-width="1.2" d="M367.4 133.5c.5 1.5 1 3 1.4 4.5-.5 1.3-1.1 2.6-1.6 3.8.1-2.7.1-5.5.2-8.3zm-4.1 8.3c.2.7.3 1.4.5 2.1-.4-.2-.7-.4-1.1-.6.2-.6.4-1.1.6-1.5zm-1.9-8c.6 2.5.8 5.8-.6 8-.3-1.1-.5-2.3-.8-3.4.1.3.2.7.3 1.1v-2.3l.9-4.5c0 .4.1.7.2 1.1z"/>
  <path fill="#1e0f00" stroke="#1e0f00" stroke-width="1.2" d="M361.4 133.8c-.1-.4-.2-.7-.3-1.1.1.3.2.7.3 1.1z"/>
  <path fill="#1e0f00" stroke="#1e0f00" stroke-width="1.2" d="M361.1 132.7l-.9 4.5c0-1.1-.1-2.3-.1-3.4-.1.5-.3.9-.6 1.2 0-.9 0-1.8.3-2.3.6-.9.9-1.7 1.3 0zm-1.1 5.7c.3 1.1.5 2.3.8 3.4-.3.6-.8 1-1.3 1.4-3.9 2.8-7.1-1.2-9.1-4.4.1-.7.2-1.3.3-1.9-.4.2-.7.4-1.1.6.2.4.5.8.8 1.3-3.6 21.7-4.3 43.7-1.7 65.5h-.2c-.8-1.5-1.5-3-2.2-4.6-2-22.9-1.1-45.9 2.9-68.5.1-.8.5-1.6 1.1-.7 1.1 2 2.7 4.8 5.2 5.4 1.3.3 3 0 3.9-1 .1 1.4.4 2.7.6 3.5z"/>
  <path fill="#1e0f00" stroke="#1e0f00" stroke-width="1.2" d="M360.2 137.2v2.3c-.1-.4-.2-.7-.3-1.1.2-.4.2-.8.3-1.2z"/>
  <path fill="#1e0f00" stroke="#1e0f00" stroke-width="1.2" d="M360.1 133.8c0 1.1 0 2.3.1 3.4-.1.4-.2.8-.2 1.2-.2-.8-.4-2.1-.5-3.4.3-.3.5-.7.6-1.2zm-9.3 3.1c-.1.6-.2 1.3-.3 1.9-.3-.4-.5-.9-.8-1.3.3-.2.7-.4 1.1-.6zm-1.9 68.9c.1.6-.1 7.5-1.1 5.5-5.6-11.3-9.7-23.1-11.5-35.6.4-.5.9-.9 1.4-1.5.1-.2.3-.3.4-.5 1.6 9.1 4.5 17.7 8.3 26 .3 3.4.6 6.7 1 10.1.4-1.8.7-3.7 1.1-5.5h.2c.1.5.2 1 .2 1.5z"/>
  <path fill="#1e0f00" stroke="#1e0f00" stroke-width="1.2" d="M348.6 204.4c-.4 1.8-.7 3.7-1.1 5.5-.4-3.3-.8-6.7-1-10.1.6 1.5 1.3 3.1 2.1 4.6zm-13.5 252.5c.7-1.5 5.5-2.3 4.5-.2-12.8 26.7-15.4 56.1-10.3 85 1.1 6 2.4 12.8 4.6 19.3h-.1c-.6-1.8-5-2.6-4.6 0l.6 3.6c-3.2-9-4.8-18.8-6.1-27.3-4.2-27.5-.6-55.3 11.4-80.4zm3-283.1c-.1.2-.3.3-.4.5-.5.6-1 1-1.4 1.5l-.3-1.8c-.1-.7-.4-2.7-.3-4.1.1-.6.2-1.2.5-1.4.9-.8 1.1.2 1.3 1.4.2 1.2.4 2.6.6 3.9zM336 577.4c2 20 1.7 40.2 1 60.2-.1 2.8-.3 5.7-.5 8.5 0-.8-3.1-2.2-4.2-1.9-.2.1-.4.1-.5.2.3-4.6.6-9.1.6-13.7.4-22.1.8-44.2-2.6-66.1 1.6 4.6 3.6 8.9 6.2 12.8zm.5 68.7c-1.4 19.8-5.3 39.4-8.7 58.9-1.9 11.3-3.8 22.6-5.6 34-1.7 10.4-2.1 21.9-6.4 31.6-9.4 21-11.5 44.4-12.4 67.1-1 23 0 46.1 2.8 69v.4c-.4-.4-.9-.7-1.2-1.1-2.1-2.4-1.1-6.6-1.4-9.6-.5-5.5-2.1-11-4.5-16-1.1-17.5-1.1-35.1 0-52.6.7-10.9 1.8-21.9 3.9-32.6.6-3.1 1.3-6.2 2.1-9.2 1.2-3.7 2.4-7.4 3.6-11 1.3-3.1 2.7-6.2 3.9-9.4 2.1-5.6 2.4-12 3.3-17.9.3-1.8.6-3.5.8-5.3.5-3.4 1.1-6.8 1.6-10.3 1.9-11.7 3.8-23.3 5.9-34.9 2.8-16.4 5.8-32.7 7.2-49.2 1.6-.5 3.1-.9 4.6-1.4.4-.2.5-.3.5-.5z"/>
  <path fill="#1e0f00" stroke="#1e0f00" stroke-width="1.2" d="M336.5 646.1c0 .2-.1.3-.4.4-1.5.5-3.1 1-4.6 1.4.1-1.2.2-2.3.3-3.5.2 0 .3-.1.5-.2 1-.3 4.2 1.1 4.2 1.9zm-2.7-84.8c.9 5.3 1.7 10.7 2.2 16.1-2.6-3.9-4.6-8.2-6.2-12.8l-.6-3.6c-.5-2.6 3.9-1.8 4.6 0-.1.1 0 .2 0 .3zm-2.1 83.1c-.1 1.2-.2 2.3-.3 3.5-2.2.6-4.4 1.2-6.6 1.7 0-.1.1-.2.1-.3.1-.2-4-1.8-4.7-1.5l-.1-.3c4-.8 7.8-1.8 11.6-3.1zm-4.2-37c1.2-.2 1.7 2.3.3 2.4-25.9 3.3-52.2-.4-76.1-10.9-1.1-.5-1.1-2.9.2-2.3 23.8 10.4 49.8 14.1 75.6 10.8zm-1.6 25.3c1.6-.2 1.7 1.7.1 1.9-25 3.6-50.4 1.5-74.5-6.1-1.6-.5-.1-2.1 1.1-1.7 23.8 7.4 48.7 9.4 73.3 5.9z"/>
  <path fill="#1e0f00" stroke="#1e0f00" stroke-width="1.2" d="M320.2 647.8c.7-.2 4.8 1.3 4.7 1.5 0 .1-.1.2-.1.3-1.9.4-3.9.8-5.8 1.2.4-1 .7-1.9 1.2-3zm1.6 281.3c0 1.1-.1 2.2-.4 3.3-.5 0-.9 0-1.4-.1-1.5-.1-2-.7-1.9-1.4.1-.9 1.3-1.9 2.7-1.8h1z"/>
  <path fill="#1e0f00" stroke="#1e0f00" stroke-width="1.2" d="M321.8 929.1h-.9c-1.5-.1-2.6.9-2.7 1.8l-1.6-.3c.8-3.5.3-7.2-1.1-10.5-2.3-5.1-6.3-8.9-10.7-12.2.7 0 1.3-.2 1.4-.8 1.8 1.5 4.2 2.6 5.9 4.1 4.9 4.2 9.6 11.2 9.7 17.9zm-1.8 3.2c.5 0 .9 0 1.4.1-.6 2.2-1.8 4.4-3.8 6.3-3.7 3.5-8.9 3.5-13.6 2.1l.3-1.2c2.7.9 5.6.4 8.5-2.4 1.9-1.8 3.1-4.1 3.7-6.6l1.6.3c-.1.7.4 1.3 1.9 1.4zm.2-284.8l.1.3s-.1 0-.1.1c-.4 1-.8 2-1.2 2.9-17.9 3.2-36.5 2.5-54.1-2-3.8-1-7.7-2-11.3-3.5 0-.5.1-1.1.1-1.6 0-.1-.1-.3-.3-.4l.2-.3c6.9 3.9 16.5 5.1 23.8 6.2 14.2 1.9 28.8 1.4 42.8-1.7zm-1.2 3.3c2-.4 3.9-.7 5.8-1.2-10.2 25-5.6 52.9-6.8 79.1-.2 4.6-.7 9.1-1.4 13.6-1.7 11.1-4.6 21.9-8 32.6-.7 1.7-1.4 3.4-1.9 5.2-.6 1.9-1.1 3.9-1.7 5.8-2.9 8.9-5.9 17.7-8.4 26.7-3.7 13-6.2 26.2-7.7 39.6-.5 4.7-2.9 10.8.1 15 2.6 3.5 5.9 5.9 8.1 9.8.7 1.1 1.3 2.3 1.8 3.4.5 8.4 1.3 16.7 2.3 25.1-.9-.6-1.7-1.2-2.6-1.7l-.1-.1c.9-10.4-1.5-20.7-7.1-29.5-2.2-3.4-5.9-5.7-7.9-9.2-1.7-3-.6-6.9-.1-10.1 2.8-17.9 5.5-35.2 10.9-52.5 5.7-18.1 12.6-35.9 16.3-54.6 6.4-31.8-2.9-66.2 8.4-97z"/>
  <path fill="#d6a48c" stroke="#d6a48c" stroke-width="1.2" d="M315.4 920.1c1.4 3.3 1.9 7.1 1.1 10.5-.6 2.5-1.8 4.7-3.7 6.6-2.9 2.8-5.8 3.2-8.5 2.4-4.3-1.4-8-6-10.6-9.9-2.2-3.4-3.7-8-7.6-9.8-.2-.1-.5-.2-.7-.3-2.7-1.1-5.3-1.2-7.6 1.1-5.1 5.2-9.4 12.1-13.7 18-1.4 2-2.9 3.8-4.4 5.6-.3.3-.8.8-1.2 1-.1 0 0 .2 0 .3 0 0 0-.1-.1-.1-.7-.8-1-2.2-1.2-3.2-.9-4.1-.2-8.3-.3-12.5-.3-14.3-9.6-26.4-14.5-39.4-2.6-7-3.6-13.9-2.5-21.3 1-6.8 2.6-13.3 1.6-20.2-2.5-16.5-5.3-32.7-6.4-49.4-1.1-16.8-.9-33.6.4-50.4 1.4-17.8 4.2-35.4 8.3-52.8 4-16.8 8.6-33.7 9.6-51 3.6 1.5 7.5 2.5 11.3 3.5 17.5 4.5 36.2 5.2 54.1 2-11.3 30.8-2 65.2-8.2 97-3.6 18.7-10.6 36.5-16.3 54.6-5.4 17.3-8 34.7-10.9 52.5-.5 3.2-1.6 7 .1 10.1 1.9 3.5 5.7 5.8 7.9 9.2 5.6 8.8 8 19.1 7.1 29.5 0 0 0 .1.1.1.8.6 1.7 1.1 2.6 1.7v.1c.2 1.3 2 2.3 3.4 2.3 4.5 3.3 8.5 7.1 10.8 12.2z"/>
  <path fill="#1e0f00" stroke="#1e0f00" stroke-width="1.2" d="M307.2 624.6c1.6 0 1.7 1.8.1 1.9-18.7.3-37.2-2.2-55.2-7.4-1.6-.5-.1-2.1 1.2-1.7 17.6 5.1 35.7 7.5 53.9 7.2zm-.5 155.5c.5-1.8 1.2-3.5 1.9-5.2-1.1 3.7-2.4 7.4-3.6 11 .6-1.9 1.1-3.8 1.7-5.8zm-.6 127c-.1.6-.7.8-1.4.8-1.1-.8-2.3-1.6-3.4-2.4-1-8.3-1.8-16.7-2.3-25.1 2.4 5 3.9 10.4 4.5 16 .3 3-.8 7.2 1.4 9.6.3.4.7.8 1.2 1.1zm-1.8 32.4l-.3 1.2c-1.9-.6-3.7-1.4-5.3-2.3-4.8-2.7-8.2-7.5-11-12.1-.9-1.5-1.6-3.1-2.6-4.6-.2-.3-.4-.7-.7-1 .2-.1.4-.3.7-.4l.3-.8c.2.1.5.2.7.3 3.9 1.8 5.4 6.4 7.6 9.8 2.6 3.9 6.4 8.6 10.6 9.9z"/>
  <path fill="#1e0f00" stroke="#1e0f00" stroke-width="1.2" d="M301.3 905.5c1.1.8 2.3 1.6 3.4 2.4-1.4 0-3.2-1-3.4-2.3v-.1zm-15.9 14.1l-.3.8c-.4-.1-.8-.2-1.3-.3.2.2.4.4.6.7-1.3.8-2.1 1.6-3.1 3-4.3 5.3-8.3 10.9-12.3 16.4-1.7 2.4-3.6 6.1-6.6 7.1-.8.3-1.6.4-2.4.3-.1-.3-.2-.5-.3-.8-.1-.2-.3-.4-.6-.5l.1-.2s-.1-.2-.5-.6c-.1-.1-.1-.2 0-.3.4-.2.9-.6 1.2-1 1.5-1.9 3-3.6 4.4-5.6 4.3-5.9 8.5-12.8 13.7-18 2.1-2.2 4.7-2.1 7.4-1z"/>
  <path fill="#1e0f00" stroke="#1e0f00" stroke-width="1.2" d="M283.9 920.1c.4.1.8.2 1.3.3-.2.1-.5.3-.7.4-.2-.3-.4-.5-.6-.7zm-17.5 52c.1 9.1-1.5 18.3-2.1 27.4h-2.5v1h2.3c-.8.5-4.9.1-4.8-.8.5-9 2.1-18.1 2.2-27.2.1-9.2-2.9-17.7-6.6-26-.1-.2.4-.4 1.2-.5 1.1.9 2.5 1.4 3.9 1.5 3.5 7.8 6.4 15.9 6.4 24.6z"/>
  <path fill="#1e0f00" stroke="#1e0f00" stroke-width="1.2" d="M264.3 999.5c0 .3 0 .5-.1.8 0 .1-.1.2-.1.2h-2.3v-1h2.5zm-4.6-52.7c.1.3.2.5.3.8-1.5-.1-2.8-.6-3.9-1.5.9-.1 2.2 0 3 .3.3 0 .5.2.6.4z"/>
  <path fill="#1e0f00" stroke="#1e0f00" stroke-width="1.2" d="M259.1 946.1l-.1.2c-.8-.3-2-.3-3-.3-2-1.5-3.4-3.9-3.7-6.2-.6-3.6-.1-7.2-.1-10.8 0-5.3-1.4-10.5-3.3-15.4-4.2-11.2-11.5-21.4-13.6-33.3-1.1-6.1-.1-12 1-18 1.1-6.1 1.2-11.4.1-17.5-2.4-13.5-4.4-27.1-5.4-40.7-2.2-27.9-1.2-56.1 3.3-83.8 4.1-25.9 13.4-51 14.7-77.3.4.3.9.6 1.4.8 1.1.6 2.2 1.2 3.4 1.7-1 17.3-5.6 34.1-9.6 51-4.1 17.4-6.9 35-8.3 52.8-1.3 16.8-1.5 33.6-.4 50.4 1.1 16.7 3.9 32.9 6.4 49.4 1.1 6.9-.6 13.4-1.6 20.2-1.1 7.4-.1 14.3 2.5 21.3 4.9 12.9 14.1 25.1 14.5 39.4.1 4.2-.6 8.4.3 12.5.2 1 .5 2.4 1.2 3.2 0 0 0 .1.1.1-.1 0 .2.3.2.3z"/>
  <path fill="#1e0f00" stroke="#1e0f00" stroke-width="1.2" d="M259.1 946.1s-.3-.3-.5-.6c.4.4.5.6.5.6zm-5.7-302.8c.2.1.3.2.3.4 0 .5-.1 1.1-.1 1.6-1.2-.5-2.3-1-3.4-1.7-.5-.3-.9-.5-1.4-.8v-.6c.1 0 3.6.5 4.6 1.1z"/>
  <path fill="#1e0f00" stroke="#1e0f00" stroke-width="1.2" d="M253.6 643l-.2.3c-1-.6-4.5-1.1-4.5-1.1v.6c-3.1-2.1-5.3-5-7.7-8-1.9-2.3-5.6-5.5-4.1-8.8.9-2 3-2.8 5.1-3 .3.4.7.8 1 1.2l.4 1.5c-1.7.7-2.5 2.8-1.7 4.7.6 1.3 1.9 2.6 2.9 3.7 2 2.4 3.8 5.3 6.4 7.3.8.6 1.6 1.1 2.4 1.6z"/>
  <path fill="#1e0f00" stroke="#1e0f00" stroke-width="1.2" d="M247.6 624.6c1 1.1-1.4 1.1-1.9 1-.8-.2-1.5-.1-2.1.2l-.4-1.5c.6-.3 1.3-.7 1.9-1-.9-.2-1.9-.3-2.9-.2-3.5-4.4-5.6-9.3-6.5-15-.1-.6.5-.7.9-.8 2.4-.4 4.7-.8 7.1-1.3l.3.6.4 2.3c-1.3.2-2.6.5-3.9.7 0-.2-.1-.4-.1-.6-.3.3-.6.5-.9.8.3-.1.7-.1 1-.2 1 5.7 3.3 10.6 7.1 15z"/>
  <path fill="#1e0f00" stroke="#1e0f00" stroke-width="1.2" d="M245.1 623.3c-.6.3-1.3.7-1.9 1-.4-.4-.7-.8-1-1.2 1-.1 2 0 2.9.2zm-.2-17.4c-.3.3-.6.5-.9.8l-.3-.6c.4-.1.8-.1 1.2-.2zm-4.5 3.1c0 .2.1.4.1.6-.3.1-.7.1-1 .2.4-.3.6-.5.9-.8z"/>
  <path d="M373.8 68.4c0-.5-.1-1-.3-1.4-1 .4-2.1.8-3.2 1.1-5 3-10.1 5.7-14.9 9.4-1.7 1.3-3.3 2.7-4.9 4.1-4.1 5.7-7.5 12.1-10.3 18.6-3.4 7.7-6.7 15.9-9.2 24.3-.3 3.4-.3 6.9-.8 10.3v.2c.3 2.9.6 5.9 1.2 8.8.7 3.4 1.9 6.6 2.9 9.9 2.3-1.9 4-5.4 3.8-8.2-.8-14.4 5.1-28.6 10.5-41.7 4.3-10.3 9.8-20.5 19.9-26.2 3-1.7 5.5-5.6 5.3-9.2zM508 129.3c-.2-4.8-1.5-10.3-.6-15.1-2.6-8.4-5.2-16.9-9.2-24.7-1-2-2.2-4-3.5-5.8-6.7-5.1-13.2-10.6-21.3-13.2-3.9-1.3-8.7-.8-11.2-4.5-1.1-1.6-1.5-3.5-.8-5.3.2-.6.5-1.2.9-1.7-.7-.6-1.5-1.1-2.2-1.6-5.2-.2-10.4-1.8-14.9-4.5-1.5 3-1.8 6.5.4 8.3 8.4 6.3 16.9 12.5 25.1 19 7.3 5.8 14.2 12.3 18.4 20.7 4.7 9.3 7.2 19.9 10.5 29.7l7.3 21.8c-.2-7.7 1.4-15.2 1.1-23.1zm255.2 505.5c-14.9.2-27.9 7.1-40.2 14.9-13 8.2-25.7 16.7-36.4 27.9-.7.7-1.4 1.8-1.9 3 .5.2.9.5 1.3.9 6.5 5.8 6.5 17 5.4 25-.6 4.8-2.4 9.2-5.2 13.1-1.4 1.9-2.8 4.1-4.5 6.1v.2c-10.5 20.8-24.4 39.7-39.2 57.6-17.5 21.2-36 41.6-54.2 62.2-2.8.6-5.3 4.1-6 6.4-2 6.3-11.3 9.7-16 13.8-7.3 6.3-12 15.3-20.2 20.6-8.6 5.6-17.6 10.3-26.1 16.1-4.6 3.1-9.1 6.4-13.5 9.8.1.1.3.1.4.2 4.1-2.5 8.3-4.7 12.7-6.8 8.4-4 17.4-6.8 25.4-11.4 5.6-3.2 11.3-6.5 16.8-10 3.5-4.1 7-8.1 11.4-11.2 6.3-4.4 12.4-8.6 16.2-15.1.7-.5 1.3-1.1 1.7-1.6 36.4-41.4 77.3-82.1 101.2-132.4 3.6-4.5 6.1-9.8 7.7-15.4 1.7-1.7 2.9-4.3 3.3-6.3 3.2-14.6 10.9-27.3 21.9-37.1.4-.1.9-.2 1.3-.5 5.7-2.8 11.5-5.2 17.5-7.1 2.1-.7 4.1-1.3 6.1-2.1 4.4-4.7 9.1-9.2 14.2-13.2 2.3-3.5 2.5-7.6-1.1-7.6zm-274-375.7c-2-.2-4.2 1.6-5.4 3-.8.9-1.6 1.7-2.4 2.5-2.2 3.3-4.6 6.5-7.7 8.9-1.1.8-2.1 1.6-3.3 2.3l-1.2 1.2c-1.2 1-2.6 1.7-4 2.3-.2.2-.5.4-.7.5-2.9 2.3-6.2 3.8-9.7 4.8-1.1.6-2.2 1.1-3.3 1.8-1.3.9-2.6 1.6-4.1 2.1-1.2.4-2.5.7-3.8.8-2.6 1.5-5.2 2.9-7.8 4.2-2.9 1.4-5.8 2.3-8.8 2.8-.3.3-.7.5-1.2.7-5.5 2.4-9.6 3.1-15.6 2.1-4.3-.7-8-2-11.3-4.8-2-.5-4-1.1-5.8-2.1-.1 0-.1-.1-.1-.1-.6-.1-1.2-.4-1.8-.8-3.8-2.5-7.6-4.9-11.7-6.7 1.1 8.5 2.1 17.2 2.6 25.8.3 2.5.3 5.1.5 7.4.2 2.9.4 5.8.5 8.7 0 .1.1.1.1.2 1.4 4 1.9 8.4 2.1 12.6.8 2.9-.7 6.5-4.6 6.5h-.1c-5.6 2.3-99.3 43.5-103.9 46.8-1.7 1.2-7.8 8-8.7 10.2.6.6-6.2 16.7-7.2 19.9-.8 2.4-4.9 21.8-4.8 22.4-.3 2.5-1.3 6.2-1.6 8.5-2 16.2-1.7 31.6-2.4 47.9-.7 16.7.4 33.4 1.1 50.1.5 13.6-.4 19.3-2.6 32.5-.4-.6-1.8 2.2-2.4 2.7-6.6 6-10.2 9.1-7.3 14.1 1.1 1.9 2.4 3.6 3.8 5.1-2.2 1.6-5.1 2.4-5.5 4.7-.7 3.9 1.1 9.6 3 13-1.4 2.4-2.3 5.2-1.8 6.7.1.5.3 1 .5 1.5 0 .1 0 .1-.1.2 2.2 1.7 3.7 4.3 5.7 6.2 2.5 2.5 4 5.1 4.3 8.6.2 2.2 0 4.3-.5 6.4.2 3.5-.3 7.1-1.4 10.4-.5 13.6-5.4 26.5-9.5 39.5-1.1 3.6-2.2 7.3-3.1 11-.7 8.9-1.5 17.8-2.4 26.7-.7 6.8-1.5 14-2.7 20.9 2.8 14.9 1.5 30.7 2.8 45.8.7 8.5 1.4 17 2.1 25.6.5 5.8 1.6 11.6 2.3 17.4 2.6-1.9 4.9-5.5 4.7-8.3-2.8-32.5-5.8-65.4-2.3-97.9 1.7-15.9 5.3-31.2 10.2-46.5 3.1-3.7 5.9-7.6 8.4-11.6 1.2-1.1 2.2-2.5 2.9-3.8 7.7-7.8 18.4-12.6 29.5-12.3 7.7.2 10.4 4 11.9 11.1 1.7 7.9 2.8 15.8 3.2 23.9 1.6 31.5-8.7 60.7-16.2 90.8-4.1 16.5-7 33.3-6.4 50.3.1 2 1 3.2 2.4 3.6.7-3.3 1.9-6.6 2.3-10 .5-4.4.4-8.9 1.5-13.3 1.2-4.7 2.7-9 3.3-13.8.6-4.3.9-8.8 2.6-12.9.8-1.9 2.3-2.9 3.9-3.2 4.4-18.7 10.6-37.2 14.3-56 3.3-17.1 4.3-34.6 2.3-51.9-.4-3.7-.8-7.8-1.5-11.7l.3-.3c1.3-1.1 2.3-2.5 3-4 .3-.4.6-.9.8-1.3l2.1-4.4c1.1-2.2 2.7-6.5.3-8.4v-1.3c2.6-1.6 4.7-5.7 4.8-8.9 2-1 4-3.1 4.8-5.4 1.4-4.2 3.9-14.2 2.2-20.8.6-3.5 0-7.2-2.5-10.2-1.4-1.7-3.2-2.9-5.3-3.7-.4.3-1 .6-1.6.8-4.2 1.2-8.9.6-13.2.6-3.2 0-6.7.2-9.8-.6h-.2c-7.5.7-15.2-1.6-22.6-2.8-2.9-.5-6.1-.7-8.7-2-.3 0-.5-.1-.8-.1-1.6-.4-3-.8-4.5-1.5-.8-.4-1.5-1.2-1.9-2-1-.5-2-1-2.9-1.6.5-2 1-4 1.4-6.1 4.3-19.1 3.1-37.9 2.6-57.2-.5-19.7 0-39.5 1.5-59.1.4-5.5 3.6-20.1 3.8-21.7 2.4-15.7 13-27.2 22.2-39.4 3.5-4.6 6.9-9.7 10.9-14.2 1.9-1.3 3.9-2.5 5.9-3.5 18.7-9.4 36.9-19 54.3-30.4 6.1-2.5 12.2-5.1 17.4-9.3-1 2.9-1.8 5.8-2.3 8.6 1.3.8 2.4 2.1 2.5 4.1.3 5.4 1.3 10.9 3.5 15.8.7 1.5 1.5 2.8 2.5 4 .3-4.5.7-8.9 1.2-13.4.2-1.4.4-2.8.7-4.1-1.1-6-.1-12.1 2.7-17.9 4.4-9 3.8-19.3 3.7-29.1-.1-5.2-.3-10.4-.7-15.6-.1-1-.1-2-.2-3.1 2.1.5 4.2.8 6.2 1.1 11.3 1.8 22.7 2.8 33.5-1.8 10.5-4.4 20.3-11.2 30.1-17 9.6-5.7 18.8-12 26.2-20.5-.2-3.2-.1-6.7 0-10.3zM283.2 646c.4.2.8.3 1.2.5-2.1 0-4.1 0-6.2-.1 1.6-.2 3.3-.3 5-.4z" opacity=".5"/>
  <path d="M588.4 576.9c-4.4 1.5-8.8 2.9-13.4 3.7-7.7 2.7-15.2 5.2-23.5 6.2-9 1.1-18.1 1.1-27.2.6-3.7.2-7.4.2-11.1.1-5.7-.2-11.5-.2-17.2-.9-3.5-.4-7-1.1-10.5-1.6-10.9-.2-22-.6-32.5-3.4-1.9.2-3.9 0-5.5-.1-3.2-.3-6.3-1.2-9.3-2.1-4.4.6-8.8 1.1-13.2 1.7-.4.3-.9.6-1.5.8-6.9 2.3-13 4.7-20.2 6-5.8 1-11.2 2.9-17 2.7-12.1 2.9-25.4 1.8-36.5-3.4-1.6-.8-2.4-2-2.5-3.3-1.3-1.3-2.3-2.8-2.7-4.5-1-1.4-2-2.9-2.8-4.3-.1-.1-.2-.3-.2-.4-1.6-1.8-2.9-3.9-3.5-6.2-3-5.3-4.4-11.4-5.3-17.7-1.7-11.1-3-22.5-3.6-33.7-.8-14.3 0-28.8 4.5-42.1-.9 0-1.7-.2-2.4-.7-6.1 13.6-7.2 29.9-7 44.2.1 13.8 2.4 27.5 5.3 41 1.6 7.3 4.2 14.9 5.5 22.6 11.4 15.2 33.8 17 51.5 16.3.8 0 1.6-.1 2.4-.1 7.2-.7 14.5-1.9 21.7-3 4.6-1 9.3-2 13.8-3.2 10.6-2.6 22.2-5.4 32.8-1.2.2.1.4.2.7.3 6.1.7 12.1 1.9 18 3.7 5.5-.1 11 0 16.5.6 9.1.2 18.2 1.2 27.2 2.1 5.4-.4 10.6-1.4 15.9-2.3 8.3-2.3 16.6-4.6 25.1-6.4 9.8-2.1 20.1-5.7 28.2-12h-.5zm57.5 17.9c0-.7.2-1.4.4-1.9-.1-.2-.1-.3-.2-.5-.4-.9-.8-1.7-1.1-2.6-2-2.5-4.1-4.8-6.6-7-4.9-4.2-9.7-8.6-13.3-14.1-.4-.5-.6-1.1-.7-1.6-4.2-4.8-8.3-9.6-12.5-14.4-2.4-2.8-5.7-.8-7.8 2.4 6.2 9.9 10.8 20.3 12.2 31.7 7.4 14 10.1 29.8 8.1 45.9-2.6 21.2-7.8 42.1-12.6 62.9-.2.9-.2 1.9 0 2.7-2.5 8.8-1.1 17.9-1.9 27-.2 2.6-.5 5.1-.7 7.7-.5 4.3-.9 8.6-1.3 12.9-1.9 22.1-2.6 44.2-2.2 66.4.1 3.3 2.7 4.6 5.5 3.2 3.1-1.5 5.4-5.8 5.3-9.2-.3-17 0-34 1.1-51 2.3-2.2 3.9-6 3.1-9.1-1.4-5.1-1.4-10.3-1-15.5.8-7.5 1.7-15.1 2.8-22.6 2.3-16.2 5.3-32.3 8.9-48.3 3.2-14.4 8.2-28.8 10-43.5.4 0 .7-.1 1.1-.2 1.4-6.9 3.3-14.3 3.4-21.3zm138.3 104.9c0-2.2-.4-4.4-.7-6.6-2.1.7-4 3-5 4.5-19.4 32.1-40.4 63.3-63 93.2-11.1 14.6-22.5 29-34.1 43.2-11 13.4-22.6 26.3-33.1 40-11.4 14.9-21.5 31.1-26.7 49.3-.1.4-.3 1-.4 1.5 2.1.9 3.9 3 3.4 5.8 2.9-.3 5.7-4.1 6.4-6.4 9.1-31.8 34.1-56 54.6-80.9 23.4-28.4 45.7-57.7 66.5-88.1 10.8-15.8 21.2-31.9 31.1-48.3.7-2.4 1-4.8 1-7.2zm-176 239.2c-4.5 8-9.6 15.5-15.6 22.3-7 7.9-16.5 12.1-27 12.5-1.1 0-2.2.1-3.3.1-4.5 1-9.1.7-13.7-.2-6.5-1.2-12.2-3.7-17.6-7-2.7-.1-5.4-.4-8.2-.7-.2.4-.4.8-.5 1.2 2.1 2.1 3.9 4.4 5.7 6.6 3.4-.1 5.9 2.8 8.8 4.8 3.7 2.6 7.7 4.5 11.9 5.9 1.9.6 3.9 1.2 6 1.6 6 .2 12.3 0 18.2-1.2 7.8-3.7 13.7-12.4 19.1-18.8 5.6-6.6 10.9-13.3 16.1-20.3 1.8-3.4 3.5-6.9 4.8-10.5-.1-.4-.2-.8-.4-1.2-1.3 1.6-2.9 3.2-4.3 4.9zM308 932.8c-.5-.3-1-.6-1.3-.9-2.5-1.6-4.2-4.1-6.5-6.8l-.6-.3c-3.8-1.6-7.9-2.7-11.3-5.1-4-2.9-7.5-7-10.4-11.3-.2.1-.4.2-.5.3-1.1 5.3-2.7 10.4-5.7 15.1-3 4.7-6.8 8.7-10.3 13-1.6 2.7-3.2 5.4-4.5 8.3-.2.5-.4.9-.7 1.4 1.2.8 2.3 1.9 3.2 2.9 4.5-5.4 9.9-10.6 14.2-16.3.4-.8.8-1.5 1.2-2.3.3-.1.5-.2.8-.4.1-.2.3-.4.4-.5-.2-2 1.3-4 3.3-4.9 2.9-2.4 7.5-.2 8.1 3.2 3.7 3.5 7.2 7.4 11.8 9.8 3.3 1.8 6.9 2.3 10.5 2.4 1-2.7 1.1-6.3-1.7-7.6zM467.3 861c1.3-.1 2.7-.2 4-.3-1.4 0-2.8 0-4.2.1.1.1.1.2.2.2zm-107.8 70.3c12.8-.1 25.5-2 38.3-2 12 0 24-.1 35.9-.9 10.2-.7 20.5-2.1 30.7-3.9-12.2-2-24.4-4.3-36.7-5.2-16.5-1.3-33-3.9-49.2-7.4-12.6-2.7-23.6-8.3-31.6-18.7-5.9-7.7-11.3-16.6-14.5-26.1-.3-.2-.5-.4-.7-.7-.8-1-1.1-2.3-1-3.6-8.3-29-12.9-59-13.5-89.3-.1-3.3-2.7-4.6-5.5-3.2-2.3 1.1-4.1 3.8-4.9 6.4-1.8 3.1-2.4 6.8-.7 8.2-1.4 1.9-2.3 4.4-2.4 6.6 0 2-.1 3.9-.1 5.9 2.1.8 3.6 2.8 2.5 5.6-1.6 4-2 8.4-2.6 12.7-.2 1.1-.3 2.2-.6 3.3-.4 13.7-.5 27.3.6 40.9.2 2.6.5 5.1.8 7.7-1.3 1.6-2.1 3.5-2.6 5.4-1.3 4.9-1 9.7.3 14.3 1.7 12.1 7.1 23.4 15.5 32.5-.6 1.8-.7 3.7-.2 5.2 1.4 1.4 2.7 2.9 3.7 4.5 3 1.9 6.9 2.3 10.5 2 7.1-.6 13.6-.8 20.7 0 1.6.2 3.2.3 4.9.5.8-.5 1.5-.7 2.4-.7zM398 175.1c-.7-1-1.4-1.9-2.1-2.9-2.2-1.6-4.9-2.7-7.5-3.8-2.7-.4-5.4-.1-8.4 1.1-3.3 1.3-6.2 3.5-9.4 5-2 .9-4.2 1.5-6.4 1.8-1 .7-2 1.2-3.1 1.8-.1.1-.3.2-.5.4-1.7 1.2-3.4 2.3-5.1 3.3-.1.8-.3 1.6-.4 2.4.5.4 1.2 1.2 1.5 1.4 1.3.8 3.2.8 4.8.9 4.2-3.3 8.7-4.2 13.5-4.9-.6 1.5-.8 3.4-.7 4.9.1 1.7.3 3.7 1.1 5.2.2.4.5.8.7 1.1.4.6 1 .9 1.7 1 .6-.2 1.1-.3 1.7-.5.5 0 .9-.3 1.2-.7.5-.4.8-.9 1-1.6.7-1.6.9-3.6.8-5.3-.1-1.7-.3-3.6-1-5.1.4-.4.9-.7 1.5-.9 1.2-.7 2.7-1 4.2-.8 4.1.6 7.7 2.6 10.5 5.4 1.4-1.5 2.5-3.6 3-5.6-1-1.2-1.8-2.5-2.6-3.6zm68.1-2.5c-5.3-1.2-9.7-3.2-15-4.4-4.6-1-10.3-1.7-15.1-.8-8.3 1.6-14.8 11.3-12.5 19.5.1.5.3.8.5 1.2 2.1-3.6 5.7-5.9 9.8-7.1v-.1h.3c.5-.2 1.1-.3 1.7-.4.1-.1.2-.1.4-.1 3-1.1 6.4-1.2 9.6-1.4-.4 1.4-.6 3.1-.5 4.5.1 1.7.3 3.7 1.1 5.2.5 1 1.1 2 2.3 2.1.7.1 1.3 0 2-.1 1.2-.2 1.8-1.2 2.2-2.2.7-1.6.9-3.6.8-5.3-.1-1.5-.2-3.2-.8-4.7 2.2 0 4.5.2 6.7.4 2.9.3 5.7.9 8.5 1.6 1.5-3.4 1.4-7.1-2-7.9z" opacity=".5"/>
</svg>