<?xml version="1.0" encoding="utf-8"?>
<!-- Generator: Adobe Illustrator 17.1.0, SVG Export Plug-In . SVG Version: 6.00 Build 0)  -->
<!DOCTYPE svg PUBLIC "-//W3C//DTD SVG 1.1//EN" "http://www.w3.org/Graphics/SVG/1.1/DTD/svg11.dtd">
<svg version="1.1"
	 id="svg2" xmlns:dc="http://purl.org/dc/elements/1.1/" xmlns:cc="http://creativecommons.org/ns#" xmlns:rdf="http://www.w3.org/1999/02/22-rdf-syntax-ns#" xmlns:svg="http://www.w3.org/2000/svg" xmlns:sodipodi="http://sodipodi.sourceforge.net/DTD/sodipodi-0.dtd" xmlns:inkscape="http://www.inkscape.org/namespaces/inkscape" sodipodi:docname="iMac.svg" inkscape:version="0.48.2 r9819"
	 xmlns="http://www.w3.org/2000/svg" xmlns:xlink="http://www.w3.org/1999/xlink" x="0px" y="0px" viewBox="0 0 1880.6 1554.7"
	 enable-background="new 0 0 1880.6 1554.7" xml:space="preserve">
<filter  height="1.6016878" width="1.6818392" y="-0.30084389" x="-0.34091958" id="filter4285" color-interpolation-filters="sRGB">
	<feGaussianBlur  stdDeviation="15.692135" id="feGaussianBlur4287"></feGaussianBlur>
</filter>
<filter  height="1.6016878" width="1.6818392" y="-0.30084389" x="-0.34091958" id="filter4281" color-interpolation-filters="sRGB">
	<feGaussianBlur  stdDeviation="15.692135" id="feGaussianBlur4283"></feGaussianBlur>
</filter>
<filter  height="4.8926253" width="1.7093352" y="-1.9463127" x="-0.35466763" id="filter3909" color-interpolation-filters="sRGB">
	<feGaussianBlur  stdDeviation="74.754651" id="feGaussianBlur3911"></feGaussianBlur>
</filter>
<filter  height="2.8435745" width="1.2221603" y="-0.9217872" x="-0.11108017" id="filter3867" color-interpolation-filters="sRGB">
	<feGaussianBlur  stdDeviation="18.422615" id="feGaussianBlur3869"></feGaussianBlur>
</filter>
<sodipodi:namedview  inkscape:cy="261.84961" inkscape:cx="1059.1305" inkscape:zoom="1.4230524" showgrid="false" id="namedview3857" guidetolerance="10" gridtolerance="10" objecttolerance="10" borderopacity="1" bordercolor="#666666" pagecolor="#ffffff" inkscape:current-layer="svg2" inkscape:window-maximized="1" inkscape:pageopacity="0" inkscape:window-x="-8" inkscape:window-height="988" inkscape:window-y="-8" inkscape:window-width="1680" inkscape:pageshadow="2">
	</sodipodi:namedview>
<g id="layer12" transform="translate(0,-45.3)">
</g>
<g id="layer2" transform="translate(-340.00073,-22.000996)">
	<g id="layer5">
		
			<linearGradient id="path3928_1_" gradientUnits="userSpaceOnUse" x1="1476.4972" y1="22.1539" x2="1476.4972" y2="-0.7009" gradientTransform="matrix(1 0 0 -1 -340.0007 1576.001)">
			<stop  offset="0" style="stop-color:#E6E6E8"/>
			<stop  offset="1" style="stop-color:#6E6E6E"/>
		</linearGradient>
		<path id="path3928" inkscape:connector-curvature="0" fill="url(#path3928_1_)" d="M993.1,1560.3c-0.8,10.6,5.5,17.1,48.2,16.3
			H1280v-22.8L993.1,1560.3z"/>
		<g>
			<defs>
				<path id="svgid_imac_1_" d="M993.1,1560.3c-0.8,10.6,5.5,17.1,48.2,16.3H1280v-22.8L993.1,1560.3z"/>
			</defs>
			<clipPath id="svgid_imac_2_">
				<use xlink:href="#svgid_imac_1_"  overflow="visible"/>
			</clipPath>
			
				<linearGradient id="rect3941_1_" gradientUnits="userSpaceOnUse" x1="1411.6289" y1="39.4703" x2="1464.3109" y2="39.4703" gradientTransform="matrix(1.4201 0 0 -1 -1011.6438 1603.3455)">
				<stop  offset="0" style="stop-color:#000000;stop-opacity:0.3922"/>
				<stop  offset="1" style="stop-color:#000000;stop-opacity:0"/>
			</linearGradient>
			<rect id="rect3941" x="993.1" y="1544.8" clip-path="url(#svgid_imac_2_)" fill="url(#rect3941_1_)" width="74.8" height="38.1"/>
		</g>
	</g>
	<g id="layer6">
		
			<linearGradient id="path3928-8_1_" gradientUnits="userSpaceOnUse" x1="2856.4971" y1="22.154" x2="2856.4971" y2="-0.7009" gradientTransform="matrix(-1 0 0 -1 4280.0005 1576.001)">
			<stop  offset="0" style="stop-color:#E6E6E8"/>
			<stop  offset="1" style="stop-color:#6E6E6E"/>
		</linearGradient>
		<path id="path3928-8" inkscape:connector-curvature="0" fill="url(#path3928-8_1_)" d="M1566.9,1560.3
			c0.8,10.6-5.5,17.1-48.2,16.3H1280v-22.8L1566.9,1560.3z"/>
		<g>
			<defs>
				<path id="svgid_imac_3_" d="M1566.9,1560.3c0.8,10.6-5.5,17.1-48.2,16.3H1280v-22.8L1566.9,1560.3z"/>
			</defs>
			<clipPath id="svgid_imac_4_">
				<use xlink:href="#svgid_imac_3_"  overflow="visible"/>
			</clipPath>
			
				<linearGradient id="rect3941-5_1_" gradientUnits="userSpaceOnUse" x1="2383.3677" y1="39.4703" x2="2436.0498" y2="39.4703" gradientTransform="matrix(-1.4201 0 0 -1 4951.6436 1603.3456)">
				<stop  offset="0" style="stop-color:#000000;stop-opacity:0.3922"/>
				<stop  offset="1" style="stop-color:#000000;stop-opacity:0"/>
			</linearGradient>
			
				<rect id="rect3941-5" x="1492.1" y="1544.8" clip-path="url(#svgid_imac_4_)" fill="url(#rect3941-5_1_)" width="74.8" height="38.1"/>
		</g>
	</g>
	<g id="layer3">
		
			<linearGradient id="path3002_1_" gradientUnits="userSpaceOnUse" x1="1884.9072" y1="250.7407" x2="1884.9072" y2="8.7063" gradientTransform="matrix(1 0 0 -1 -604.9071 1576.001)">
			<stop  offset="0" style="stop-color:#808185"/>
			<stop  offset="0.3414" style="stop-color:#C2C3C7"/>
			<stop  offset="0.6726" style="stop-color:#9C9DA1"/>
			<stop  offset="0.7745" style="stop-color:#7A7B7F"/>
			<stop  offset="0.9125" style="stop-color:#A2A3A7"/>
			<stop  offset="1" style="stop-color:#B8B9BD"/>
		</linearGradient>
		<path id="path3002" inkscape:connector-curvature="0" fill="url(#path3002_1_)" d="M1280,1269.3l-189.2,5.9
			c1.5,55.4-3.9,117.8-11.6,174.4c-1.6,12-3.2,25.1-6,37.8c-3.7,14.6-9.5,23.8-17.9,30.6c-7,5.6-16,9.4-24.3,14
			c-12.3,6.8-22.5,13.6-29.2,19c-2.8,2.3-6,4.9-8.3,8.1c-0.3,0.5-0.5,1-0.5,1.4c0,1.7,2.5,2.8,4.6,3.6c7,2.3,20,3,35.6,3.2
			c8.4,0.1,18.6-0.1,27.9-0.1H1280h218.8c9.3-0.1,19.5,0.1,27.9,0.1c15.6-0.1,28.6-0.9,35.6-3.2c2.2-0.8,4.6-1.8,4.6-3.6
			c0-0.4-0.1-0.9-0.5-1.4c-2.4-3.2-5.5-5.8-8.3-8.1c-6.7-5.4-16.8-12.2-29.2-19c-8.3-4.7-17.4-8.4-24.3-14
			c-8.3-6.8-14.2-16-17.9-30.6c-2.8-12.7-4.4-25.8-6-37.8c-7.7-56.6-13.1-119-11.6-174.4L1280,1269.3z"/>
	</g>
	<g id="layer8">
		<g>
			<defs>
				<path id="svgid_imac_5_" d="M1280,1269.3l-189.2,5.9c1.5,55.4-3.9,117.8-11.6,174.4c-1.6,12-3.2,25.1-6,37.8
					c-3.7,14.6-9.5,23.8-17.9,30.6c-7,5.6-16,9.4-24.3,14c-12.3,6.8-22.5,13.6-29.2,19c-2.8,2.3-6,4.9-8.3,8.1
					c-0.3,0.5-0.5,1-0.5,1.4c0,1.7,2.5,2.8,4.6,3.6c7,2.3,20,3,35.6,3.2c8.4,0.1,18.6-0.1,27.9-0.1H1280h218.8
					c9.3-0.1,19.5,0.1,27.9,0.1c15.6-0.1,28.6-0.9,35.6-3.2c2.2-0.8,4.6-1.8,4.6-3.6c0-0.4-0.1-0.9-0.5-1.4
					c-2.4-3.2-5.5-5.8-8.3-8.1c-6.7-5.4-16.8-12.2-29.2-19c-8.3-4.7-17.4-8.4-24.3-14c-8.3-6.8-14.2-16-17.9-30.6
					c-2.8-12.7-4.4-25.8-6-37.8c-7.7-56.6-13.1-119-11.6-174.4L1280,1269.3z"/>
			</defs>
			<clipPath id="svgid_imac_6_">
				<use xlink:href="#svgid_imac_5_"  overflow="visible"/>
			</clipPath>
			<g id="path4182" inkscape:connector-curvature="0" clip-path="url(#svgid_imac_6_)" filter="url(#filter4281)">
				<path opacity="0.7843" fill="#FFFFFF" d="M993.1,1498.1c31.4-4.7,52.6,13.5,77.3,23.7c-36.8,69.5-73.6,79.8-110.5,100.7
					l9.6-93.7L993.1,1498.1z"/>
			</g>
		</g>
		<g>
			<defs>
				<path id="svgid_imac_7_" d="M1280,1269.3l-189.2,5.9c1.5,55.4-3.9,117.8-11.6,174.4c-1.6,12-3.2,25.1-6,37.8
					c-3.7,14.6-9.5,23.8-17.9,30.6c-7,5.6-16,9.4-24.3,14c-12.3,6.8-22.5,13.6-29.2,19c-2.8,2.3-6,4.9-8.3,8.1
					c-0.3,0.5-0.5,1-0.5,1.4c0,1.7,2.5,2.8,4.6,3.6c7,2.3,20,3,35.6,3.2c8.4,0.1,18.6-0.1,27.9-0.1H1280h218.8
					c9.3-0.1,19.5,0.1,27.9,0.1c15.6-0.1,28.6-0.9,35.6-3.2c2.2-0.8,4.6-1.8,4.6-3.6c0-0.4-0.1-0.9-0.5-1.4
					c-2.4-3.2-5.5-5.8-8.3-8.1c-6.7-5.4-16.8-12.2-29.2-19c-8.3-4.7-17.4-8.4-24.3-14c-8.3-6.8-14.2-16-17.9-30.6
					c-2.8-12.7-4.4-25.8-6-37.8c-7.7-56.6-13.1-119-11.6-174.4L1280,1269.3L1280,1269.3z"/>
			</defs>
			<clipPath id="svgid_imac_8_">
				<use xlink:href="#svgid_imac_7_"  overflow="visible"/>
			</clipPath>
			<g id="path4182-3" inkscape:connector-curvature="0" clip-path="url(#svgid_imac_8_)" filter="url(#filter4285)">
				<path opacity="0.7843" fill="#FFFFFF" d="M1566.9,1498.1c-31.4-4.7-52.6,13.5-77.3,23.7c36.8,69.5,73.6,79.8,110.5,100.7
					l-9.6-93.7L1566.9,1498.1z"/>
			</g>
		</g>
	</g>
	<g id="layer4">
		<g>
			<defs>
				<path id="svgid_imac_9_" d="M1280,1269.3l-189.2,5.9c1.5,55.4-3.9,117.8-11.6,174.4c-1.6,12-3.2,25.1-6,37.8
					c-3.7,14.6-9.5,23.8-17.9,30.6c-7,5.6-16,9.4-24.3,14c-12.3,6.8-22.5,13.6-29.2,19c-2.8,2.3-6,4.9-8.3,8.1
					c-0.3,0.5-0.5,1-0.5,1.4c0,1.7,2.5,2.8,4.6,3.6c7,2.3,20,3,35.6,3.2c8.4,0.1,18.6-0.1,27.9-0.1H1280h218.8
					c9.3-0.1,19.5,0.1,27.9,0.1c15.6-0.1,28.6-0.9,35.6-3.2c2.2-0.8,4.6-1.8,4.6-3.6c0-0.4-0.1-0.9-0.5-1.4
					c-2.4-3.2-5.5-5.8-8.3-8.1c-6.7-5.4-16.8-12.2-29.2-19c-8.3-4.7-17.4-8.4-24.3-14c-8.3-6.8-14.2-16-17.9-30.6
					c-2.8-12.7-4.4-25.8-6-37.8c-7.7-56.6-13.1-119-11.6-174.4L1280,1269.3z"/>
			</defs>
			<clipPath id="svgid_imac_10_">
				<use xlink:href="#svgid_imac_9_"  overflow="visible"/>
			</clipPath>
			<g id="rect3853" clip-path="url(#svgid_imac_10_)" filter="url(#filter3867)">
				<path opacity="0.5882" fill="#FFFFFF" d="M1280,1430.2L1280,1430.2c139.7,0,252.9,10.7,252.9,24l0,0c0,13.2-113.2,24-252.9,24
					l0,0c-139.7,0-252.9-10.7-252.9-24l0,0C1027.1,1440.9,1140.3,1430.2,1280,1430.2z"/>
			</g>
		</g>
	</g>
	<g id="g3887">
		<g>
			<defs>
				<path id="svgid_imac_11_" d="M1280,1269.3l-189.2,5.9c1.5,55.4-3.9,117.8-11.6,174.4c-1.6,12-3.2,25.1-6,37.8
					c-3.7,14.6-9.5,23.8-17.9,30.6c-7,5.6-16,9.4-24.3,14c-12.3,6.8-22.5,13.6-29.2,19c-2.8,2.3-6,4.9-8.3,8.1
					c-0.3,0.5-0.5,1-0.5,1.4c0,1.7,2.5,2.8,4.6,3.6c7,2.3,20,3,35.6,3.2c8.4,0.1,18.6-0.1,27.9-0.1H1280h218.8
					c9.3-0.1,19.5,0.1,27.9,0.1c15.6-0.1,28.6-0.9,35.6-3.2c2.2-0.8,4.6-1.8,4.6-3.6c0-0.4-0.1-0.9-0.5-1.4
					c-2.4-3.2-5.5-5.8-8.3-8.1c-6.7-5.4-16.8-12.2-29.2-19c-8.3-4.7-17.4-8.4-24.3-14c-8.3-6.8-14.2-16-17.9-30.6
					c-2.8-12.7-4.4-25.8-6-37.8c-7.7-56.6-13.1-119-11.6-174.4L1280,1269.3z"/>
			</defs>
			<clipPath id="svgid_imac_12_">
				<use xlink:href="#svgid_imac_11_"  overflow="visible"/>
			</clipPath>
			<g id="rect3889" clip-path="url(#svgid_imac_12_)" filter="url(#filter3909)">
				<path fill="#FFFFFF" d="M1280,1403.2L1280,1403.2c139.7,0,252.9,20.6,252.9,46.1v0c0,25.5-113.2,46.1-252.9,46.1l0,0
					c-139.7,0-252.9-20.6-252.9-46.1v0C1027.1,1423.9,1140.3,1403.2,1280,1403.2z"/>
			</g>
		</g>
	</g>
	<g id="g3913">
	</g>
</g>
<g id="g4380" transform="translate(-340.00073,-22.000996)">
	
		<linearGradient id="path4382_1_" gradientUnits="userSpaceOnUse" x1="716.0355" y1="348.9319" x2="2560.574" y2="351.277" gradientTransform="matrix(1 0 0 -1 -340.0007 1576.001)">
		<stop  offset="0" style="stop-color:#A5A6AA"/>
		<stop  offset="1" style="stop-color:#E1E2E4"/>
	</linearGradient>
	<path id="path4382" inkscape:connector-curvature="0" fill="url(#path4382_1_)" d="M340,1139.8v45.2v64.7c0,49,18.9,62.3,62.3,62.3
		h133.5h10.1h1482.4h129.4c43.4,0,62.3-13.3,62.3-62.3v-109.9L340,1139.8z"/>
</g>
<g id="g4491" transform="translate(-340.00073,-22.000996)">
	
		<linearGradient id="path4493_1_" gradientUnits="userSpaceOnUse" x1="1524.3866" y1="350.048" x2="1974.0691" y2="350.048" gradientTransform="matrix(1 0 0 -1 -340.0007 1576.001)">
		<stop  offset="0" style="stop-color:#808080"/>
		<stop  offset="1" style="stop-color:#808080;stop-opacity:0"/>
	</linearGradient>
	<path id="path4493" inkscape:connector-curvature="0" fill="url(#path4493_1_)" d="M340,1139.8v45.2v64.7c0,49,18.9,62.3,62.3,62.3
		h133.5h10.1h1482.4h129.4c43.4,0,62.3-13.3,62.3-62.3v-109.9L340,1139.8z"/>
</g>
<g id="g4495" transform="translate(-340.00073,-22.000996)">
	
		<linearGradient id="path4497_1_" gradientUnits="userSpaceOnUse" x1="716.0325" y1="351.2766" x2="2560.571" y2="353.6216" gradientTransform="matrix(1 0 0 -1 -340.0007 1576.001)">
		<stop  offset="0" style="stop-color:#A5A6AA"/>
		<stop  offset="1" style="stop-color:#E1E2E4"/>
	</linearGradient>
	<path id="path4497" inkscape:connector-curvature="0" fill="url(#path4497_1_)" d="M340,1137.5v45.2v64.7c0,49,19,62.3,62.3,62.3
		h133.5h10.1h1482.9h129.4c43.4,0,62.3-13.3,62.3-62.3v-109.9L340,1137.5z"/>
</g>
<g id="layer11" transform="translate(-340.00073,-22.000996)">
	
		<linearGradient id="rect4398_1_" gradientUnits="userSpaceOnUse" x1="680.0007" y1="428.3688" x2="1333.0598" y2="428.3688" gradientTransform="matrix(1 0 0 -1 -340.0007 1569.431)">
		<stop  offset="0" style="stop-color:#D5D5D7;stop-opacity:0"/>
		<stop  offset="9.579180e-003" style="stop-color:#D5D5D7"/>
		<stop  offset="1" style="stop-color:#E6E6E6"/>
	</linearGradient>
	<rect id="rect4398" x="340" y="1139.9" fill="url(#rect4398_1_)" width="653.1" height="2.4"/>
	
		<linearGradient id="rect4398-8_1_" gradientUnits="userSpaceOnUse" x1="2060.0005" y1="428.3689" x2="2713.0596" y2="428.3689" gradientTransform="matrix(-1 0 0 -1 3706.1187 1569.431)">
		<stop  offset="0" style="stop-color:#D5D5D7;stop-opacity:0"/>
		<stop  offset="9.579180e-003" style="stop-color:#D5D5D7"/>
		<stop  offset="1" style="stop-color:#E6E6E6"/>
	</linearGradient>
	<rect id="rect4398-8" x="993.1" y="1139.9" fill="url(#rect4398-8_1_)" width="653.1" height="2.4"/>
</g>
<g id="layer10" transform="translate(-340.00073,-22.000996)">
	<g id="text4486">
		<path id="path6883" stroke="#DCDCDC" stroke-width="1.5" d="M1280.8,1199.8c1.6,0,4.2-0.6,7.8-1.9c3.6-1.2,6.8-1.9,9.4-1.9
			c4.4,0,8.3,1.2,11.7,3.5c1.9,1.3,3.8,3.2,5.7,5.5c-2.8,2.4-4.9,4.6-6.2,6.4c-2.4,3.4-3.6,7.2-3.6,11.3c0,4.5,1.3,8.6,3.8,12.2
			c2.5,3.6,5.4,5.9,8.6,6.9c-1.3,4.4-3.6,8.9-6.7,13.7c-4.7,7.1-9.4,10.7-14.1,10.7c-1.8,0-4.4-0.6-7.6-1.8c-3.3-1.2-6-1.8-8.2-1.8
			c-2.2,0-4.8,0.6-7.8,1.8c-3,1.2-5.4,1.8-7.2,1.8c-5.6,0-11-4.7-16.4-14.2c-5.4-9.3-8-18.5-8-27.5c0-8.3,2.1-15.2,6.2-20.4
			c4.1-5.3,9.3-7.9,15.5-7.9c2.7,0,5.9,0.6,9.7,1.7C1277.1,1199.2,1279.6,1199.8,1280.8,1199.8L1280.8,1199.8z M1297.5,1177.8
			c0,2.3-0.5,4.8-1.6,7.5c-1.1,2.7-2.8,5.2-5.1,7.5c-2,2-4,3.3-5.9,3.9c-1.2,0.4-3.1,0.7-5.6,0.9c0.1-5.4,1.5-10.1,4.2-14
			c2.8-3.9,7.3-6.6,13.7-8.1c0.1,0.5,0.2,0.9,0.3,1.2C1297.5,1177.1,1297.5,1177.4,1297.5,1177.8L1297.5,1177.8z"/>
	</g>
</g>
<path d="M1817.7,0h-133.5h-10.1H191.7H62.3C18.9,0,0,13.3,0,62.3V127v990.8h1880V127V62.3C1880,13.3,1861.1,0,1817.7,0z
	 M1800.9,1043.5H79.1V74.4h1721.7V1043.5z"/>
<g id="layer13" transform="translate(-340.00073,-22.000996)">
	<g>
		<defs>
			<path id="svgid_imac_13_" d="M402.3,22C358.9,22,340,35.3,340,84.3V149v990.8h1880V149V84.3c0-49-18.9-62.3-62.3-62.3h-133.5h-10.1
				H531.7H402.3z"/>
		</defs>
		<clipPath id="svgid_imac_14_">
			<use xlink:href="#svgid_imac_13_"  overflow="visible"/>
		</clipPath>
		
			<linearGradient id="path4516_1_" gradientUnits="userSpaceOnUse" x1="2201.7798" y1="1762.5887" x2="2647.4751" y2="172.7903" gradientTransform="matrix(1 0 0 -1 -340.0007 1576.001)">
			<stop  offset="0" style="stop-color:#FFFFFF;stop-opacity:0.1961"/>
			<stop  offset="1" style="stop-color:#FFFFFF;stop-opacity:0"/>
		</linearGradient>
		<path id="path4516" inkscape:connector-curvature="0" clip-path="url(#svgid_imac_14_)" fill="url(#path4516_1_)" d="M1420.1,9.8
			l632.5,1414l333.3,21.2l6.4-1511.3L1420.1,9.8z"/>
	</g>
</g>
</svg>
