<svg xmlns="http://www.w3.org/2000/svg" viewBox="30 160 400 140">
  <path d="M223 162.1c-16.9 2-29.1 7.8-41 19.9-13.9 13.9-19.3 27.3-19.3 48 0 21.2 5.3 35.1 18.8 48.5 11.9 11.9 23.5 17.3 41.8 19.5 33.2 3.9 63.8-13 74.7-41.3 9.1-23.5 5.1-53.1-9.5-70.7-14.6-17.7-39.8-26.8-65.5-23.9zm21.6 29.6c17.6 5.9 27.4 21.7 26.1 41.8-.3 4.6-1.4 10.5-2.7 13.7-2.8 7.6-10.4 15.9-17.8 19.5-5.2 2.6-6.7 2.8-16.7 2.8s-11.5-.2-16.7-2.8c-23.8-11.7-29.9-45.5-11.7-65.2 9.4-10.1 26.2-14.3 39.5-9.8zM47.8 163.7l-8.8.4v131.7l15.8.7c29.5 1.4 48.9-.9 62.7-7.5 18.1-8.6 30.5-23.7 35.1-42.6 2.3-9.2 2.3-26.7 0-35.4-5.3-20.9-19.3-35.8-40.3-43.1-12.7-4.4-29.7-5.5-64.5-4.2zm47.7 29.8c5.7 1.4 14.7 6.9 18.5 11.3 5.9 6.6 8.3 13.8 8.2 24.7 0 24.8-15.3 38.5-42.8 38.5H69v-75.9l5.3-.3c5.8-.3 16.5.5 21.2 1.7zM311 207.1c0 48.3.4 52 6.8 64.4 6.9 13 19.5 22.4 34.7 25.6 8 1.6 23.6 1.6 30.5 0 19.2-4.6 33-18.4 37.5-37.3 1.2-5.1 1.5-15.1 1.5-51.1V164h-30v41.7c0 47-.3 49.8-6.8 57.4-4.6 5.4-8.5 6.9-17.4 6.9-9.1 0-14.1-2.2-19.1-8.1-6.9-8-7.1-9.4-7.5-56.2l-.3-41.7H311v43.1z" fill="currentColor" />
</svg>