<svg xmlns="http://www.w3.org/2000/svg" viewBox="0 0 512 512">
  <path d="M324.907 344.893l-200.994-18.559-3.997 42.828 201.281 18.555zM320.055 399.996l-201.853.287v43.106l201.853-.278zM363.734 239.255L189.865 136.471l-21.982 37.115L341.751 276.37zM338.329 288.361l-195.002-52.249-11.136 41.686 195.002 52.249z"/>
  <path d="M354.594 477.651H89.649V301.212H55.104V511.34h.287l9.995.287h323.187v-.287l.287-9.993V301.212h-34.266zM421.98 0l-42.544 7.423 34.553 198.998 42.534-7.422zM256.958 66.522L370.873 233.26l35.409-24.267L292.643 41.971z"/>
</svg>