<svg xmlns="http://www.w3.org/2000/svg" viewBox="0 0 129 129">
  <path d="M10.5 113.2h107.9c2.3 0 4.1-1.8 4.1-4.1V36.3c0-2.3-1.8-4.1-4.1-4.1H87.1V19.9c0-2.3-1.8-4.1-4.1-4.1H46c-2.3 0-4.1 1.8-4.1 4.1v12.4H10.5c-2.3 0-4.1 1.8-4.1 4.1v72.8c.1 2.2 1.9 4 4.1 4zM50.1 24h28.8v8.3H50.1V24zM14.6 40.4H45c.3.1.6.1.9.1.3 0 .6 0 .9-.1H82c.3.1.6.1.9.1.3 0 .6 0 .9-.1h30.4v28.2H87.1v-4.9c0-2.3-1.8-4.1-4.1-4.1s-4.1 1.8-4.1 4.1v4.9H50.1v-4.9c0-2.3-1.8-4.1-4.1-4.1s-4.1 1.8-4.1 4.1v4.9H14.6V40.4zm0 36.4h27.3v4.6c0 2.3 1.8 4.1 4.1 4.1s4.1-1.8 4.1-4.1v-4.6h28.8v4.6c0 2.3 1.8 4.1 4.1 4.1s4.1-1.8 4.1-4.1v-4.6h27.3V105H14.6V76.8z"/>
</svg>