<svg xmlns="http://www.w3.org/2000/svg" viewBox="0 0 129 129">
  <path d="M10.5 118.1h107.9c2.3 0 4.1-1.8 4.1-4.1V22.5c0-2.3-1.8-4.1-4.1-4.1H98.1v-3.5c0-2.3-1.8-4.1-4.1-4.1s-4.1 1.8-4.1 4.1v3.5H39.7v-3.5c0-2.3-1.8-4.1-4.1-4.1s-4.1 1.8-4.1 4.1v3.5h-21c-2.3 0-4.1 1.8-4.1 4.1v91.6c0 2.2 1.9 4 4.1 4zm4.1-91.5h16.9v2.2c0 2.3 1.8 4.1 4.1 4.1s4.1-1.8 4.1-4.1v-2.2h50.2v2.2c0 2.3 1.8 4.1 4.1 4.1s4.1-1.8 4.1-4.1v-2.2h16.3v10.6H14.6V26.6zm0 18.8h99.7V110H14.6V45.4z"/>
  <path d="M94 64.2H35c-2.3 0-4.1 1.8-4.1 4.1s1.8 4.1 4.1 4.1h59c2.3 0 4.1-1.8 4.1-4.1s-1.8-4.1-4.1-4.1zM64.5 84H35c-2.3 0-4.1 1.8-4.1 4.1s1.8 4.1 4.1 4.1h29.5c2.3 0 4.1-1.8 4.1-4.1S66.8 84 64.5 84z"/>
</svg>