<svg xmlns="http://www.w3.org/2000/svg" viewBox="0 0 129 129">
  <path d="M6.5 110.9c0 .1 0 .2.1.4 0 .1.1.3.1.4 0 .1.1.2.1.4.1.1.1.2.2.4.1.1.1.2.2.3.1.1.2.2.2.3l.3.3.1.1s.1 0 .1.1c.3.3.7.5 1.1.6.1 0 .1 0 .2.1.4.1.8.2 1.2.2h107.9c.4 0 .8-.1 1.2-.2.1 0 .1 0 .2-.1.4-.2.8-.4 1.1-.6 0 0 .1 0 .1-.1l.1-.1.3-.3c.1-.1.2-.2.2-.3.1-.1.1-.2.2-.3.1-.1.1-.2.2-.4.1-.1.1-.2.1-.4 0-.1.1-.3.1-.4 0-.1.1-.2.1-.4v-.4-91.8c0-2.3-1.8-4.1-4.1-4.1H10.5c-2.3 0-4.1 1.8-4.1 4.1v91.8c.1.1.1.2.1.4zm12.8-4.7L49.6 70l12.6 8.8c.7.5 1.5.7 2.3.7.8 0 1.6-.2 2.3-.7L79.4 70l30.3 36.2H19.3zm95.1-7.2L86.1 65.3l28.2-19.7V99zM14.7 22.8h99.7v12.9L64.6 70.4 14.7 35.7V22.8zm0 22.8l28.2 19.7L14.7 99V45.6z"/>
</svg>