<svg xmlns="http://www.w3.org/2000/svg" viewBox="0 -2 85 35">
  <path d="M6.827 12.278a6.918 6.918 0 0 1 5.595-2.848l.521.019-.023-.001c4.272 0 7.587 2.988 7.587 7.941v14.047H13.68V19.8c0-2.529-1.31-3.931-3.381-3.931-1.9 0-3.473 1.31-3.473 4.062v11.505H-.001V-.014h6.827zm39.784 19.159h-6.552v-2.319a7.349 7.349 0 0 1-5.843 2.89l-.332-.007.016.001c-5.713 0-9.946-4.98-9.946-11.296S28.187 9.45 33.926 9.45l.288-.006a7.326 7.326 0 0 1 5.832 2.884l.013.018V10.04h6.552zm-15.725-10.72a4.586 4.586 0 1 0 9.171 0 4.586 4.586 0 0 0-9.171 0zm43.073-.013C73.959 27.02 69.713 32 64 32l-.342.008a7.272 7.272 0 0 1-5.778-2.848l-.013-.017v2.293h-6.552V-.014h6.814v12.095a7.265 7.265 0 0 1 5.596-2.628l.329.007-.016-.001c5.674-.013 9.92 4.94 9.92 11.243zm-16.157 0a4.586 4.586 0 1 0 9.171 0 4.586 4.586 0 0 0-9.171 0zM92.318 9.776l-.59 6.801a11.31 11.31 0 0 0-3.412-.563h-.008a3.459 3.459 0 0 0-3.928 3.87l-.002-.017v11.571h-6.84V10.039h6.552v2.464c1.124-1.85 3.128-3.068 5.417-3.068l.448.016-.02-.001h.022c.842 0 1.655.12 2.425.343l-.061-.015z"/>
</svg>