<svg xmlns="http://www.w3.org/2000/svg" viewBox="0 0 129 129">
  <path d="M10.5 122.5h39.9c.2 0 .5.1.7.1h27c.2 0 .5 0 .7-.1h39.6c2.3 0 4.1-1.8 4.1-4.1v-54c0-.3 0-.5-.1-.8 0-.2-.1-.3-.2-.5 0-.1 0-.2-.1-.2-.1-.2-.2-.4-.3-.5 0-.1-.1-.1-.1-.2-.1-.2-.3-.4-.5-.6l-54-54C65.6 6 63 6 61.4 7.6l-54 54c-.2.2-.4.4-.5.6 0 .1-.1.1-.1.2-.1.2-.2.3-.3.5 0 .1-.1.2-.1.3-.1.2-.1.3-.2.5-.1.3-.1.5-.1.8v54c.4 2.2 2.2 4 4.4 4zm63.5-8.2H55.2V95.5H74v18.8zm-9.5-98l44.1 44.1H20.4l44.1-44.1zM14.6 68.6h99.7v45.8H82.2v-23c0-2.3-1.8-4.1-4.1-4.1h-27c-2.3 0-4.1 1.8-4.1 4.1v22.9H14.6V68.6z"/>
</svg>